<?xml version="1.0" standalone="no"?>
<!DOCTYPE svg PUBLIC "-//W3C//DTD SVG 1.1//EN" "http://www.w3.org/Graphics/SVG/1.1/DTD/svg11.dtd" >
<svg>
<metadata>
Created by FontForge 20090914 at Tue Oct  7 11:34:46 2014
 By www-data
Futura is a registered trademark of Fundicion Tipografica Neufville S. A.
</metadata>
<defs>
<font id="FuturaLT-Light" horiz-adv-x="620" >
  <font-face 
    font-family="Futura LT"
    font-weight="200"
    font-stretch="normal"
    units-per-em="1000"
    panose-1="2 0 3 3 0 0 0 0 0 0"
    ascent="800"
    descent="-200"
    x-height="462"
    cap-height="754"
    bbox="-175 -302.001 1127 971"
    underline-thickness="50"
    underline-position="-100"
    unicode-range="U+0020-U+FFFD"
  />
<missing-glyph horiz-adv-x="310" 
 />
    <glyph glyph-name=".notdef" unicode="&#xfffd;" horiz-adv-x="310" 
 />
    <glyph glyph-name="space" unicode=" " horiz-adv-x="310" 
 />
    <glyph glyph-name="exclam" unicode="!" horiz-adv-x="320" 
d="M160 72c11.333 0 21 -4 29 -12s12 -17.667 12 -29s-4 -21 -12 -29s-17.667 -12 -29 -12s-21 4 -29 12s-12 17.667 -12 29s4 21 12 29s17.667 12 29 12zM136 143v611h48v-611h-48z" />
    <glyph glyph-name="quotedbl" unicode="&#x22;" horiz-adv-x="278" 
d="M58 754h48l-11 -240h-27zM172 754h48l-11 -240h-27z" />
    <glyph glyph-name="numbersign" unicode="#" 
d="M536 276v-48h-126l-37 -228h-46l36 228h-135l-33 -228h-48l33 228h-121v48h128l23 162h-123v48h130l32 212h50l-32 -212h136l32 212h50l-33 -212h110v-48h-118l-26 -162h118zM395 438h-136l-24 -162h136z" />
    <glyph glyph-name="dollar" unicode="$" 
d="M347 362l0.000976562 -321.998c40.667 10 74.5 31.167 101.5 63.5s40.5 69.166 40.5 110.499c0 19.333 -4 36.666 -12 51.999s-20.333 29.333 -37 42s-30.834 22.167 -42.501 28.5s-28.5 14.833 -50.5 25.5zM302.001 437.002l0.000976562 279
c-35.333 0 -65.5 -14.333 -90.5 -43s-37.5 -61.334 -37.5 -98.001c0 -17.333 3.16699 -32.833 9.5 -46.5s16.166 -26 29.499 -37s25.333 -19.667 36 -26s25 -14.166 43 -23.499c4.66699 -2 8 -3.66699 10 -5zM302.002 38.002l0.00390625 346
c-3.33301 1.33301 -8 3.66602 -14 6.99902c-26.667 13.333 -46.834 24 -60.501 32s-29.834 19.5 -48.501 34.5s-32.167 32 -40.5 51s-12.5 40.5 -12.5 64.5c0 53.333 16.167 97.5 48.5 132.5s74.833 54.5 127.5 58.5v105h45v-107c32 -4 61.667 -15.333 89 -34
s48.666 -42 63.999 -70l-37 -30c-30.667 53.333 -69.334 82.666 -116.001 87.999v-300l34.5 -17c19 -9.33301 31 -15.5 36 -18.5l30.5 -18c15.333 -9 25.5 -16.167 30.5 -21.5l22.5 -24c10 -10.667 16.833 -20.667 20.5 -30s7.16699 -20.666 10.5 -33.999
s5 -27.666 5 -42.999c0 -52.667 -18.5 -99.667 -55.5 -141s-81.833 -67 -134.5 -77v-113h-45v111c-52 1.33301 -97 16.333 -135 45s-66 68 -84 118l41 19c15.333 -40.667 38.833 -73.667 70.5 -99s67.5 -37 107.5 -35z" />
    <glyph glyph-name="percent" unicode="%" horiz-adv-x="664" 
d="M180 761c42.667 0 78.667 -14 108 -42s44 -63.667 44 -107c0 -42 -14.667 -77 -44 -105s-65.333 -42 -108 -42s-78.667 14 -108 42s-44 63 -44 105c0 43.333 14.667 79 44 107s65.333 42 108 42zM180 719c-30 0 -55.833 -10.333 -77.5 -31s-32.5 -46 -32.5 -76
c0 -28.667 10.833 -53.334 32.5 -74.001s47.5 -31 77.5 -31s55.833 10.333 77.5 31s32.5 45.334 32.5 74.001c0 30 -10.833 55.333 -32.5 76s-47.5 31 -77.5 31zM538 771l33 -17l-448 -771l-31 18zM484 289c42.667 0 78.667 -14 108 -42s44 -63.667 44 -107
c0 -42 -14.667 -77 -44 -105s-65.333 -42 -108 -42s-78.667 14 -108 42s-44 63 -44 105c0 43.333 14.667 79 44 107s65.333 42 108 42zM484 247c-30 0 -55.833 -10.333 -77.5 -31s-32.5 -46 -32.5 -76c0 -28.667 10.833 -53.334 32.5 -74.001s47.5 -31 77.5 -31
s55.833 10.333 77.5 31s32.5 45.334 32.5 74.001c0 30 -10.833 55.333 -32.5 76s-47.5 31 -77.5 31z" />
    <glyph glyph-name="ampersand" unicode="&#x26;" horiz-adv-x="642" 
d="M316 723c-26.667 0 -49.334 -10.6699 -68.001 -32.0029s-28 -45.666 -28 -72.999c0 -12.667 2.33301 -25.667 7 -39s9.83398 -24.333 15.501 -33l23 -34.5l21.5 -32.5c6.66699 5.33301 17.5 13.333 32.5 24s26.333 19.334 34 26.001s16.5 15.334 26.5 26.001
s17.167 22 21.5 34s6.5 25.333 6.5 40c0 26 -8.83301 48.167 -26.5 66.5s-39.5 27.5 -65.5 27.5zM592 -0.00292969l-94.9971 125.002c-50.667 -43.333 -98.5 -77.5 -143.5 -102.5s-89.833 -37.5 -134.5 -37.5c-55.333 0 -102 19.5 -140 58.5s-57 85.833 -57 140.5
c0 25.333 5.16699 50 15.5 74s21.666 44 33.999 60s31.166 34.167 56.499 54.5s44.666 35 57.999 44s35 22.833 65 41.5c-1.33301 2 -7 9.83301 -17 23.5s-16.5 22.834 -19.5 27.501l-15.5 25c-7.33301 12 -12.333 21.667 -15 29s-5.33398 16.5 -8.00098 27.5
s-4 21.833 -4 32.5c0 40 14.5 74.167 43.5 102.5s63.5 42.5 103.5 42.5c38.667 0 71.167 -13.667 97.5 -41s39.5 -60.333 39.5 -99c0 -20.667 -3.5 -39.834 -10.5 -57.501s-18.167 -34.334 -33.5 -50.001s-29.666 -28.834 -42.999 -39.501s-31.333 -23.667 -54 -39l186 -254
l96 105l37 -20l-105 -120l115 -153h-52zM279.003 419.999l-47.998 -32.002c-24 -15.333 -43 -28.166 -57 -38.499s-30.333 -24.166 -49 -41.499s-32.5 -35.833 -41.5 -55.5s-13.5 -40.834 -13.5 -63.501c0 -43.333 14 -80.666 42 -111.999s63.667 -47 107 -47
c27.333 0 57.666 8 90.999 24s60.166 31.5 80.499 46.5s46.5 35.833 78.5 62.5z" />
    <glyph glyph-name="quotesingle" unicode="'" horiz-adv-x="222" 
d="M87 754h48l-11 -240h-27z" />
    <glyph glyph-name="parenleft" unicode="(" horiz-adv-x="240" 
d="M137 780l37 -26.001c-42 -148.667 -63 -301.667 -63 -459c0 -146.667 21 -295.667 63 -447l-37 -25c-23.333 60 -41 134 -53 222s-18 171.333 -18 250c0 82.667 5.83301 168.834 17.5 258.501s29.5 165.167 53.5 226.5z" />
    <glyph glyph-name="parenright" unicode=")" horiz-adv-x="240" 
d="M66 754l37 26.001c24 -61.333 41.833 -136.833 53.5 -226.5s17.5 -175.834 17.5 -258.501c0 -78.667 -6 -162 -18 -250s-29.667 -162 -53 -222l-37 25c42 151.333 63 300.333 63 447c0 157.333 -21 310.333 -63 459z" />
    <glyph glyph-name="asterisk" unicode="*" horiz-adv-x="619" 
d="M289 604l-4 150h49l-4 -150l142 50l15 -47l-144 -43l92 -119l-40 -29l-85 124l-86 -124l-39 28l91 120l-144 43l15 47z" />
    <glyph glyph-name="plus" unicode="+" 
d="M286 280v232h48v-232h232v-48h-232v-232h-48v232h-232v48h232z" />
    <glyph glyph-name="comma" unicode="," horiz-adv-x="310" 
d="M153 74l45 -14l-83 -226l-30 11z" />
    <glyph glyph-name="hyphenminus" unicode="-" horiz-adv-x="190" 
d="M0 342h190v-45h-190v45z" />
    <glyph glyph-name="period" unicode="." horiz-adv-x="310" 
d="M155 72c11.333 0 21 -4 29 -12s12 -17.667 12 -29s-4 -21 -12 -29s-17.667 -12 -29 -12s-21 4 -29 12s-12 17.667 -12 29s4 21 12 29s17.667 12 29 12z" />
    <glyph glyph-name="slash" unicode="/" horiz-adv-x="640" 
d="M570 825l35 -18l-533 -949l-37 19z" />
    <glyph glyph-name="zero" unicode="0" 
d="M310 764c36 0 69.333 -8.16699 100 -24.5s56.5 -37.833 77.5 -64.5s38.833 -56.834 53.5 -90.501s25.5 -67.667 32.5 -102s10.5 -67.833 10.5 -100.5c0 -41.333 -5.5 -83.833 -16.5 -127.5s-27 -85.667 -48 -126s-49.833 -73.5 -86.5 -99.5s-77.667 -39 -123 -39
s-86.333 13 -123 39s-65.5 59.167 -86.5 99.5s-37 82.333 -48 126s-16.5 86.167 -16.5 127.5c0 32.667 3.5 66.167 10.5 100.5s17.833 68.333 32.5 102s32.5 63.834 53.5 90.501s46.833 48.167 77.5 64.5s64 24.5 100 24.5zM310 35c38 0 72.167 11.5 102.5 34.5
s54.166 52.5 71.499 88.5s30.333 73.333 39 112s13 76 13 112c0 32 -4.33301 66.5 -13 103.5s-21.667 73.333 -39 109s-41.166 65.334 -71.499 89.001s-64.5 35.5 -102.5 35.5s-72.167 -11.833 -102.5 -35.5s-54.166 -53.334 -71.499 -89.001s-30.333 -72 -39 -109
s-13 -71.5 -13 -103.5c0 -36 4.33301 -73.333 13 -112s21.667 -76 39 -112s41.166 -65.5 71.499 -88.5s64.5 -34.5 102.5 -34.5z" />
    <glyph glyph-name="one" unicode="1" 
d="M308 709h-119l23 45h144v-754h-48v709z" />
    <glyph glyph-name="two" unicode="2" 
d="M176 45h358v-45h-465l281 309c54 59.333 89.667 104.333 107 135c21.333 36.667 32 70.667 32 102c0 48.667 -17.5 89.667 -52.5 123s-76.833 50 -125.5 50c-52 0 -95 -16.833 -129 -50.5s-50.333 -76.167 -49 -127.5h-48c2 61.333 17.667 109 47 143
c22 24.667 49.167 44.167 81.5 58.5s64.833 21.5 97.5 21.5c62.667 0 116 -21.167 160 -63.5s66 -94.833 66 -157.5c0 -24 -3.83301 -47.333 -11.5 -70s-20 -46.167 -37 -70.5s-31 -43 -42 -56s-28.167 -32.167 -51.5 -57.5z" />
    <glyph glyph-name="three" unicode="3" 
d="M302 370l0.00195312 45c45.333 1.33301 83.333 16.5 114 45.5s46 66.167 46 111.5c0 40.667 -14.667 75.334 -44 104.001s-64.333 43 -105 43c-43.333 0 -77.833 -13 -103.5 -39s-39.834 -60.667 -42.501 -104h-48c4 58 23 103.833 57 137.5s80 50.5 138 50.5
c54 0 100.167 -18.833 138.5 -56.5s57.5 -83.5 57.5 -137.5c0 -38.667 -10.167 -73.667 -30.5 -105s-47.833 -54.666 -82.5 -69.999c37.333 -14 67.333 -38 90 -72s34 -71 34 -111c0 -62.667 -21.167 -115.334 -63.5 -158.001s-94.833 -64 -157.5 -64
c-58 0 -107.5 18.333 -148.5 55s-61.167 83.334 -60.5 140.001h48c4 -44.667 20.333 -80.834 49 -108.501s65.667 -41.5 111 -41.5c47.333 0 88.166 17.167 122.499 51.5s51.5 75.166 51.5 122.499c0 48 -16.5 86.833 -49.5 116.5s-73.5 44.5 -121.5 44.5z" />
    <glyph glyph-name="four" unicode="4" 
d="M467 188h106v-45h-106v-143h-48v143h-407v6l449 631h6v-592zM419 188v446h-6l-313 -440v-6h319z" />
    <glyph glyph-name="five" unicode="5" 
d="M531 709l-252 0.000976562l-63 -204c16.667 5.33301 35.667 8 57 8c72 0 132.667 -24.833 182 -74.5s74 -110.5 74 -182.5c0 -76.667 -26.167 -140.167 -78.5 -190.5s-116.833 -75.5 -193.5 -75.5c-45.333 0 -87.833 11.167 -127.5 33.5s-71.5 52.833 -95.5 91.5l44 18
c19.333 -30 45.333 -53.833 78 -71.5s66.667 -26.5 102 -26.5c63.333 0 116.333 21.167 159 63.5s64 95.166 64 158.499c0 59.333 -21.667 109.333 -65 150s-95 61 -155 61c-38.667 0 -77 -11.333 -115 -34l98 320h287v-45z" />
    <glyph glyph-name="six" unicode="6" 
d="M340 764l39 -28.999l-166 -235l2 -2c32 13.333 65.333 20 100 20c72 0 133.833 -26.167 185.5 -78.5s77.5 -114.5 77.5 -186.5c0 -66 -25 -126.333 -75 -181c-50.667 -54.667 -115.334 -82 -194.001 -82c-73.333 0 -136.166 25.5 -188.499 76.5
s-78.5 113.167 -78.5 186.5c0 59.333 18.333 114.666 55 165.999zM310 35.001c60 0 111.667 21.501 155 64.501s65 94.5 65 154.5s-21.667 111.5 -65 154.5s-95 64.5 -155 64.5c-60.667 0 -112.5 -21.5 -155.5 -64.5s-64.5 -94.5 -64.5 -154.5
c0 -60.667 21.5 -112.334 64.5 -155.001s94.833 -64 155.5 -64z" />
    <glyph glyph-name="seven" unicode="7" 
d="M528 709h-458v45h547l-540 -762l-37 29z" />
    <glyph glyph-name="eight" unicode="8" 
d="M310 369c-46.667 0 -86.834 -16.333 -120.501 -49s-50.5 -72 -50.5 -118s16.833 -85.333 50.5 -118s73.834 -49 120.501 -49s86.834 16.333 120.501 49s50.5 72 50.5 118s-16.833 85.333 -50.5 118s-73.834 49 -120.501 49zM310 -10c-60 0 -111.5 19.667 -154.5 59
s-64.5 88.666 -64.5 147.999c0 91.333 41 156.666 123 195.999c-32 16 -57.667 39.667 -77 71s-29 65 -29 101c0 56.667 19.333 104 58 142s86.667 57 144 57s105.333 -19 144 -57s58 -85.333 58 -142c0 -36 -9.66699 -69.667 -29 -101s-45 -55 -77 -71
c82 -39.333 123 -104.666 123 -195.999c0 -59.333 -21.5 -108.666 -64.5 -147.999s-94.5 -59 -154.5 -59zM310 719c-42 0 -78.167 -15 -108.5 -45s-45.5 -66 -45.5 -108s15 -77.833 45 -107.5s66.333 -44.5 109 -44.5c42 0 78.167 14.833 108.5 44.5s45.5 65.5 45.5 107.5
s-15.167 78 -45.5 108s-66.5 45 -108.5 45z" />
    <glyph glyph-name="nine" unicode="9" 
d="M280 -8l-38.998 29l167 235l-2 2c-32.667 -13.333 -66.334 -20 -101.001 -20c-72 0 -133.833 26 -185.5 78s-77.5 114 -77.5 186c0 72.667 26.5 134.5 79.5 185.5s116.167 76.5 189.5 76.5c75.333 0 138.666 -25.667 189.999 -77s77 -114.666 77 -189.999
c0 -54.667 -18.333 -108.334 -55 -161.001zM311.002 719c-60 0 -111.833 -21.333 -155.5 -64s-65.5 -94 -65.5 -154s21.833 -111.333 65.5 -154s95.5 -64 155.5 -64s111.5 21.333 154.5 64s64.5 94 64.5 154s-21.5 111.333 -64.5 154s-94.5 64 -154.5 64z" />
    <glyph glyph-name="colon" unicode=":" horiz-adv-x="310" 
d="M155 72c11.333 0 21 -4 29 -12s12 -17.667 12 -29s-4 -21 -12 -29s-17.667 -12 -29 -12s-21 4 -29 12s-12 17.667 -12 29s4 21 12 29s17.667 12 29 12zM155 472c11.333 0 21 -4 29 -12s12 -17.667 12 -29s-4 -21 -12 -29s-17.667 -12 -29 -12s-21 4 -29 12
s-12 17.667 -12 29s4 21 12 29s17.667 12 29 12z" />
    <glyph glyph-name="semicolon" unicode=";" horiz-adv-x="310" 
d="M153 74l45 -14l-83 -226l-30 11zM161 472c11.333 0 21 -4 29 -12s12 -17.667 12 -29s-4 -21 -12 -29s-17.667 -12 -29 -12s-21 4 -29 12s-12 17.667 -12 29s4 21 12 29s17.667 12 29 12z" />
    <glyph glyph-name="less" unicode="&#x3c;" 
d="M106 256l460 -215v-46l-512 235v53l512 223v-46z" />
    <glyph glyph-name="equal" unicode="=" 
d="M566 365v-48h-512v48h512zM566 195v-48h-512v48h512z" />
    <glyph glyph-name="greater" unicode="&#x3e;" 
d="M54 41l460 215l-460 204v46l512 -223v-53l-512 -235v46z" />
    <glyph glyph-name="question" unicode="?" horiz-adv-x="491" 
d="M354 303l48.0029 0.00195312c2 -46 -11.667 -84.333 -41 -115s-67.666 -46 -114.999 -46c-44 0 -81.333 14.167 -112 42.5s-46 63.833 -46 106.5c0 43.333 12.5 76.833 37.5 100.5s60.167 41.167 105.5 52.5l48 13.5c10.667 3 23.5 8.16699 38.5 15.5s26 15.333 33 24
s13.167 20.167 18.5 34.5s8 31.166 8 50.499c0 38 -12.5 70.333 -37.5 97s-56.833 40 -95.5 40c-37.333 0 -68.5 -12.167 -93.5 -36.5s-37.167 -54.5 -36.5 -90.5c0 -21.333 1.66699 -39 5 -53h-46c-4.66699 24.667 -7 46 -7 64c0 46.667 17.667 85.167 53 115.5
s77.333 45.5 126 45.5c53.333 0 96.666 -16.833 129.999 -50.5s50 -76.834 50 -129.501s-13.833 -92.167 -41.5 -118.5s-69.167 -46.5 -124.5 -60.5c-16.667 -4 -29.334 -7.33301 -38.001 -10s-19.334 -7 -32.001 -13s-22.167 -12.5 -28.5 -19.5s-12 -16.333 -17 -28
s-7.5 -25.167 -7.5 -40.5c0 -31.333 10.5 -57 31.5 -77s47.833 -30 80.5 -30s58.667 11.5 78 34.5s28.666 50.167 27.999 81.5zM243.003 72.002c11.333 0 21 -4 29 -12s12 -17.667 12 -29s-4 -21 -12 -29s-17.667 -12 -29 -12s-21 4 -29 12s-12 17.667 -12 29s4 21 12 29
s17.667 12 29 12z" />
    <glyph glyph-name="at" unicode="@" horiz-adv-x="800" 
d="M337 193c30.667 0.666992 59.499 13.333 86.499 38s45.167 51.667 54.5 81l47 147c6 20.667 -1 43.667 -21 69s-47 38 -81 38c-33.333 0 -65.166 -14.833 -95.499 -44.5s-54 -64.667 -71 -105s-25.5 -77.833 -25.5 -112.5c0 -31.333 9.5 -57.833 28.5 -79.5
s44.833 -32.167 77.5 -31.5zM550.999 540.999l14.9971 46.999h44l-103 -324c-2.66699 -8.66699 -4.66699 -15.667 -6 -21s-2.16602 -11.666 -2.49902 -18.999s0.833984 -12.833 3.50098 -16.5s7.16699 -7 13.5 -10s14.833 -4.5 25.5 -4.5
c40.667 0 80.334 28.167 119.001 84.5s58 112.166 58 167.499c0 80 -30.5 146.167 -91.5 198.5s-130.833 78.5 -209.5 78.5c-91.333 0 -170 -34.833 -236 -104.5s-99 -151.167 -99 -244.5c0 -92 33.667 -171.833 101 -239.5s146 -101.5 236 -101.5
c57.333 0 110.333 11.667 159 35s86.667 57 114 101h56c-28.667 -54 -72 -97.167 -130 -129.5s-124.333 -48.5 -199 -48.5c-106.667 0 -196.5 38 -269.5 114s-109.5 168 -109.5 276c0 106 37 196.5 111 271.5s162 112.5 264 112.5c96.667 0 178.334 -30.667 245.001 -92
s100 -138.333 100 -231c0 -77.333 -24.833 -145 -74.5 -203s-102.5 -87 -158.5 -87c-18 0 -33.833 4.33301 -47.5 13s-22.834 20.667 -27.501 36c-38 -32.667 -81.333 -49 -130 -49c-42 0 -74.667 13.833 -98 41.5s-35 62.834 -35 105.501c0 74.667 23 145 69 211
s103.667 99 173 99c50.667 0 90.667 -22.333 120 -67z" />
    <glyph glyph-name="A" unicode="A" horiz-adv-x="641" 
d="M486 248h-331l-101 -248h-49l316 779l315 -779h-49zM468 293l-147 364l-148 -364h295z" />
    <glyph glyph-name="B" unicode="B" horiz-adv-x="565" 
d="M129 367v-322.001h115c26.667 0 45.334 0.166992 56.001 0.5s26.167 2.83301 46.5 7.5s37.5 11.667 51.5 21c49.333 33.333 74 78 74 134c0 28.667 -6.83301 55.334 -20.5 80.001s-32.834 43 -57.501 55c-32 16 -85 24 -159 24h-106zM274 -0.000976562h-193v754h151
c34.667 0 64.167 -2.83301 88.5 -8.5s46.833 -17.5 67.5 -35.5c42 -36.667 63 -88.667 63 -156c0 -70 -29 -121.333 -87 -154c46.667 -9.33301 84.334 -31.333 113.001 -66s43 -76 43 -124c0 -64 -23.333 -116 -70 -156c-42.667 -36 -101.334 -54 -176.001 -54zM129 708.999
l-0.000976562 -296.999h83h16.5h16.5c2 0 6.83301 0.166992 14.5 0.5s13 0.666016 16 0.999023s7.66699 1 14 2s11.333 2.16699 15 3.5l13.5 5c5.33301 2 10.333 4.33301 15 7s9.33398 5.66699 14.001 9c37.333 26.667 56 67 56 121c0 56.667 -20.667 98 -62 124
c-25.333 16 -68.333 24 -129 24h-83z" />
    <glyph glyph-name="C" unicode="C" horiz-adv-x="739" 
d="M680 666l-0.00292969 -66c-29.333 35.333 -67.166 64 -113.499 86s-92.833 33 -139.5 33c-93.333 0 -173.833 -34.5 -241.5 -103.5s-101.5 -150.167 -101.5 -243.5c0 -89.333 33.667 -167 101 -233c32.667 -31.333 70.334 -56.5 113.001 -75.5s85.667 -28.5 129 -28.5
c44 0 90.333 10.833 139 32.5s86.667 49.167 114 82.5v-66c-75.333 -62.667 -159 -94 -251 -94c-105.333 0 -197.166 38.167 -275.499 114.5s-117.5 166.833 -117.5 271.5c0 106.667 38.833 198 116.5 274s170.167 114 277.5 114c96 0 179.333 -32.667 250 -98z" />
    <glyph glyph-name="D" unicode="D" horiz-adv-x="652" 
d="M81 0l0.000976562 754h136c60 0 111.833 -6.83301 155.5 -20.5s85.167 -38.5 124.5 -74.5c80 -74.667 120 -169 120 -283c0 -110 -38.667 -202 -116 -276c-39.333 -38 -81.333 -64.167 -126 -78.5s-97.334 -21.5 -158.001 -21.5h-136zM129.001 45l87.001 -0.000976562
c107.333 0 191.666 30.333 252.999 91c66.667 66.667 100 146.667 100 240c0 100.667 -36.333 184.334 -109 251.001c-34 30.667 -70.5 52 -109.5 64s-83.833 18 -134.5 18h-87v-664z" />
    <glyph glyph-name="E" unicode="E" horiz-adv-x="507" 
d="M441 709h-312v-274h304v-45h-304v-345h312v-45h-360v754h360v-45z" />
    <glyph glyph-name="F" unicode="F" horiz-adv-x="444" 
d="M385 709h-256v-274h249v-45h-249v-390h-48v754h304v-45z" />
    <glyph glyph-name="G" unicode="G" horiz-adv-x="824" 
d="M470 363l317.999 0.000976562c1.33301 -52.667 -3.66699 -99.167 -15 -139.5s-32.666 -77.5 -63.999 -111.5c-35.333 -38.667 -78.5 -68.667 -129.5 -90s-103.167 -32 -156.5 -32c-104.667 0 -195.334 38 -272.001 114s-115 166 -115 270c0 108 38.5 200 115.5 276
s169.5 114 277.5 114c132 0 241 -58.667 327 -176l-39 -31c-34 51.333 -76 91.166 -126 119.499s-105 42.5 -165 42.5c-91.333 0 -171.166 -34.333 -239.499 -103s-102.5 -148.334 -102.5 -239.001c0 -93.333 33.5 -173.666 100.5 -240.999s147.5 -101 241.5 -101
c79.333 0 153.333 27.667 222 83c58 49.333 88.667 116 92 200h-270v45z" />
    <glyph glyph-name="H" unicode="H" horiz-adv-x="716" 
d="M129 434h458v320h48v-754h-48v389h-458v-389h-48v754h48v-320z" />
    <glyph glyph-name="I" unicode="I" horiz-adv-x="210" 
d="M129 754v-754h-48v754h48z" />
    <glyph glyph-name="J" unicode="J" horiz-adv-x="218" 
d="M89 754l48 0.000976562v-740c0 -54 -9.5 -96.167 -28.5 -126.5s-53.833 -45.5 -104.5 -45.5c-27.333 0 -52 7.5 -74 22.5s-39 34.833 -51 59.5l36 27c8.66699 -18.667 21.5 -34 38.5 -46s35.167 -18 54.5 -18c18 0 32.667 3.66699 44 11s19.5 18 24.5 32
s8.33301 27.167 10 39.5s2.5 27.166 2.5 44.499v740z" />
    <glyph glyph-name="K" unicode="K" horiz-adv-x="569" 
d="M129 402l358 352h64l-369 -363l392 -391h-63l-362 360l-20 -20v-340h-48v754h48v-352z" />
    <glyph glyph-name="L" unicode="L" horiz-adv-x="327" 
d="M129 754v-709h192v-45h-240v754h48z" />
    <glyph glyph-name="M" unicode="M" horiz-adv-x="897" 
d="M842 0l-129 624h-2l-263 -649l-262 649h-2l-129 -624h-46l162 779l277 -686l278 686l162 -779h-46z" />
    <glyph glyph-name="N" unicode="N" horiz-adv-x="843" 
d="M762 754v-779l-633 673v-648h-48v764l633 -668v658h48z" />
    <glyph glyph-name="O" unicode="O" horiz-adv-x="854" 
d="M427 764c106 0 197.667 -38 275 -114s116 -167 116 -273s-38.667 -197 -116 -273s-169 -114 -275 -114s-197.667 38 -275 114s-116 167 -116 273s38.5 197 115.5 273s168.833 114 275.5 114zM427 719c-94 0 -174.667 -33.6689 -242 -101.002s-101 -147.666 -101 -240.999
s33.667 -173.666 101 -240.999s148 -101 242 -101c93.333 0 173.833 33.833 241.5 101.5s101.5 147.834 101.5 240.501c0 93.333 -33.833 173.666 -101.5 240.999s-148.167 101 -241.5 101z" />
    <glyph glyph-name="P" unicode="P" horiz-adv-x="472" 
d="M129 358v-357.999h-48v754h133c36 0 66.833 -2.83301 92.5 -8.5s49.167 -17.5 70.5 -35.5c45.333 -38.667 68 -90.334 68 -155.001c0 -28 -5.5 -55.667 -16.5 -83s-26.5 -49.333 -46.5 -66c-36.667 -32 -92.667 -48 -168 -48h-85zM129 403.001h87
c57.333 0 101.333 13.667 132 41c32.667 30 49 67.667 49 113c0 53.333 -19 94 -57 122c-26 20 -70 30 -132 30h-79v-306z" />
    <glyph glyph-name="Q" unicode="Q" horiz-adv-x="854" 
d="M520 309l153 -165.997c64.667 70 97 146 97 228c0 95.333 -33 177.166 -99 245.499s-147 102.5 -243 102.5c-93.333 0 -174 -33.833 -242 -101.5s-102 -147.834 -102 -240.501c0 -94.667 33.833 -175.334 101.5 -242.001s149.167 -100 244.5 -100c74 0 144 26.333 210 79
l-188 195h68zM742 0.00292969l-68 79.999c-72.667 -60 -155 -90 -247 -90c-108 0 -200.167 37.667 -276.5 113s-114.5 166.666 -114.5 273.999c0 106.667 38.5 197.834 115.5 273.501s169.167 113.5 276.5 113.5c106 0 197.5 -37.667 274.5 -113
s115.5 -165.666 115.5 -270.999c0 -98 -36.667 -189 -110 -273l99 -107h-65z" />
    <glyph glyph-name="R" unicode="R" horiz-adv-x="488" 
d="M207 357l247.001 -357h-55l-246 357h-24v-357h-48v754h94c26 0 46.667 -0.5 62 -1.5s33.5 -4.5 54.5 -10.5s39.5 -14.667 55.5 -26c50.667 -35.333 76 -89.333 76 -162c0 -64 -19.833 -113.167 -59.5 -147.5s-91.834 -50.833 -156.501 -49.5zM129.001 402
l61 -0.000976562c61.333 0 105.333 11.667 132 35c35.333 28.667 53 68.334 53 119.001c0 29.333 -6.83301 56.5 -20.5 81.5s-33.5 43.167 -59.5 54.5c-24 11.333 -69 17 -135 17h-31v-307z" />
    <glyph glyph-name="S" unicode="S" horiz-adv-x="544" 
d="M464 658l-34.001 -28.001c-37.333 59.333 -88.333 89 -153 89c-40 0 -73.667 -14 -101 -42s-41 -62 -41 -102c0 -18.667 3.66699 -35.334 11 -50.001s19.333 -28.167 36 -40.5s30 -21.166 40 -26.499s26.333 -13.333 49 -24l144 -75c57.333 -36 86 -86 86 -150
c0 -61.333 -23.667 -113.166 -71 -155.499s-102.333 -63.5 -165 -63.5c-51.333 0 -96.666 14.667 -135.999 44s-68 68.666 -86 117.999l42 19c36 -90.667 96.667 -136 182 -136c50 0 93.5 17.333 130.5 52s55.5 76.667 55.5 126c0 15.333 -3.16699 29.833 -9.5 43.5
s-13 24.667 -20 33s-18.5 17.833 -34.5 28.5s-27.5 17.834 -34.5 21.501s-20.167 10.167 -39.5 19.5l-14 7l-136 72c-52 32 -78 77 -78 135c0 56 18 101.833 54 137.5s82.333 53.5 139 53.5c38 0 73.667 -9.5 107 -28.5s59 -44.833 77 -77.5z" />
    <glyph glyph-name="T" unicode="T" horiz-adv-x="450" 
d="M249 709v-709h-48v709h-195v45h438v-45h-195z" />
    <glyph glyph-name="U" unicode="U" horiz-adv-x="660" 
d="M538 298l-0.00195312 456h48v-470c0 -33.333 -0.5 -58.666 -1.5 -75.999s-5.5 -38.333 -13.5 -63s-20 -47 -36 -67c-24.667 -28.667 -55.167 -50.5 -91.5 -65.5s-74.166 -22.5 -113.499 -22.5s-77.166 7.5 -113.499 22.5s-66.833 36.833 -91.5 65.5
c-16 20 -28 42.333 -36 67s-12.5 45.667 -13.5 63s-1.5 42.666 -1.5 75.999v470h48v-456c0 -30.667 0.5 -54.334 1.5 -71.001s4.5 -36.834 10.5 -60.501s15 -43.167 27 -58.5c17.333 -22.667 42 -40.5 74 -53.5s63.667 -19.5 95 -19.5s63 6.5 95 19.5s56.667 30.833 74 53.5
c12 15.333 21 34.833 27 58.5s9.5 43.834 10.5 60.501s1.5 40.334 1.5 71.001z" />
    <glyph glyph-name="V" unicode="V" horiz-adv-x="555" 
d="M53 754l224 -644h2l223 644h48l-274 -779l-271 779h48z" />
    <glyph glyph-name="W" unicode="W" horiz-adv-x="1105" 
d="M60 754l212 -648l282 686l282 -686l209 648h48l-254 -779l-288 697l-287 -697l-252 779h48z" />
    <glyph glyph-name="X" unicode="X" horiz-adv-x="494" 
d="M218 385l-198 369h53l173 -324l173 324h53l-197 -369l207 -385h-52l-184 341l-182 -341h-52z" />
    <glyph glyph-name="Y" unicode="Y" horiz-adv-x="559" 
d="M255 322l-251 432h53l222 -382l222 382h53l-251 -432v-322h-48v322z" />
    <glyph glyph-name="Z" unicode="Z" horiz-adv-x="568" 
d="M96 45h447v-45h-531l460 709h-416v45h500z" />
    <glyph glyph-name="bracketleft" unicode="[" horiz-adv-x="300" 
d="M113 703v-855h122v-51h-170v957h170v-51h-122z" />
    <glyph glyph-name="backslash" unicode="\" horiz-adv-x="640" 
d="M35 807l35 18l535 -806l-37 -19z" />
    <glyph glyph-name="bracketright" unicode="]" horiz-adv-x="300" 
d="M187 -152v855h-122v51h170v-957h-170v51h122z" />
    <glyph glyph-name="asciicircum" unicode="^" 
d="M101 301h-47l230 453h52l230 -453h-46l-210 408z" />
    <glyph glyph-name="underscore" unicode="_" horiz-adv-x="500" 
d="M500 -125h-500v50h500v-50z" />
    <glyph glyph-name="grave" unicode="`" horiz-adv-x="313" 
d="M75 695l61 19l101 -147l-38 -17z" />
    <glyph glyph-name="a" unicode="a" horiz-adv-x="560" 
d="M256 430c-51.333 0 -94 -19.668 -128 -59.001s-51 -85 -51 -137c0 -55.333 16.833 -102.833 50.5 -142.5s77.5 -59.5 131.5 -59.5c56.667 0 101.167 19.833 133.5 59.5s48.5 88.834 48.5 147.501c0 54.667 -17 100.167 -51 136.5s-78.667 54.5 -134 54.5zM483 461.999
l0.00195312 -461.998h-45v83h-2c-16.667 -28.667 -41.334 -51.334 -74.001 -68.001s-66.667 -25 -102 -25c-68.667 0 -123.834 23.333 -165.501 70s-62.5 104.667 -62.5 174c0 68.667 20.667 125.5 62 170.5s96 67.5 164 67.5c36 0 69.833 -7.83301 101.5 -23.5
s57.167 -37.834 76.5 -66.501h2v80h45z" />
    <glyph glyph-name="b" unicode="b" horiz-adv-x="560" 
d="M301 32c54.667 0 98.667 19.833 132 59.5s50 87.167 50 142.5c0 52.667 -17 98.5 -51 137.5s-77 58.5 -129 58.5c-56.667 0 -101.5 -18.667 -134.5 -56s-49.5 -84.333 -49.5 -141c0 -56 16.5 -103.5 49.5 -142.5s77.167 -58.5 132.5 -58.5zM77 0l0.00195312 824.998h45
v-443h2c19.333 28.667 44.833 50.834 76.5 66.501s65.5 23.5 101.5 23.5c68 0 122.667 -22.5 164 -67.5s62 -101.833 62 -170.5c0 -69.333 -20.833 -127.333 -62.5 -174s-96.834 -70 -165.501 -70c-35.333 0 -69.333 8.33301 -102 25s-57.334 39.334 -74.001 68.001h-2v-83
h-45z" />
    <glyph glyph-name="c" unicode="c" horiz-adv-x="477" 
d="M431 415l-0.000976562 -60c-46 50 -100.333 75 -163 75c-53.333 0 -98.5 -19.667 -135.5 -59s-55.5 -85.666 -55.5 -138.999s18.333 -100 55 -140s81.667 -60 135 -60c68 0 124.667 27.667 170 83v-61c-48.667 -42.667 -104.667 -64 -168 -64
c-68 0 -124.5 23.333 -169.5 70s-67.5 104 -67.5 172c0 67.333 22.833 124.166 68.5 170.499s102.167 69.5 169.5 69.5c62.667 0 116.334 -19 161.001 -57z" />
    <glyph glyph-name="d" unicode="d" horiz-adv-x="560" 
d="M259 32c56.667 0 101.167 19.832 133.5 59.499s48.5 88.834 48.5 147.501c0 54.667 -17 100.167 -51 136.5s-78.667 54.5 -134 54.5c-51.333 0 -94 -19.667 -128 -59s-51 -85 -51 -137c0 -55.333 16.833 -102.833 50.5 -142.5s77.5 -59.5 131.5 -59.5zM438 -0.000976562
l0.00195312 83.002h-2c-16.667 -28.667 -41.334 -51.334 -74.001 -68.001s-66.667 -25 -102 -25c-68.667 0 -123.834 23.333 -165.501 70s-62.5 104.667 -62.5 174c0 68.667 20.667 125.5 62 170.5s96 67.5 164 67.5c36 0 69.833 -7.83301 101.5 -23.5
s57.167 -37.834 76.5 -66.501h2v443h45v-825h-45z" />
    <glyph glyph-name="e" unicode="e" horiz-adv-x="510" 
d="M478 227l-400.998 -0.000976562c-1.33301 -58 15.5 -105 50.5 -141s79.833 -54 134.5 -54c34.667 0 66.167 9.5 94.5 28.5s51.166 44.5 68.499 76.5l38 -22c-44 -83.333 -113 -125 -207 -125c-66.667 0 -120.667 23.5 -162 70.5s-62 104.167 -62 171.5
c0 66.667 20.833 123.334 62.5 170.001s95.5 70 161.5 70c68 0 122.167 -23.667 162.5 -71s60.166 -105.333 59.499 -174zM77.002 268.999h356.001c-6 44 -25.333 81.833 -58 113.5s-72 47.5 -118 47.5c-46.667 0 -87.334 -15.833 -122.001 -47.5s-54 -69.5 -58 -113.5z" />
    <glyph glyph-name="f" unicode="f" horiz-adv-x="240" 
d="M122 420l0.000976562 -419.999h-45v420h-51v42h51v207c0 54 6 91.667 18 113c21.333 37.333 55.666 56 102.999 56c14.667 0 28 -2.33301 40 -7v-41c-24 4 -36.333 6 -37 6c-18.667 0 -33.667 -4 -45 -12s-19.333 -19.833 -24 -35.5s-7.5 -29.334 -8.5 -41.001
s-1.5 -27.5 -1.5 -47.5v-198h116v-42h-116z" />
    <glyph glyph-name="g" unicode="g" horiz-adv-x="567" 
d="M263 430c-51.333 0 -94 -19.668 -128 -59.001s-51 -85 -51 -137c0 -55.333 16.833 -102.833 50.5 -142.5s77.5 -59.5 131.5 -59.5c56.667 0 101.167 19.833 133.5 59.5s48.5 88.834 48.5 147.501c0 54.667 -17 100.167 -51 136.5s-78.667 54.5 -134 54.5zM490 461.999
l-0.000976562 -439.999c0 -29.333 -0.666992 -52.833 -2 -70.5s-5.5 -38.167 -12.5 -61.5s-17.5 -44.666 -31.5 -63.999c-43.333 -59.333 -104.666 -89 -183.999 -89c-62.667 0 -115.5 17.667 -158.5 53s-66.167 83.666 -69.5 144.999h45
c2.66699 -46.667 21.167 -84.334 55.5 -113.001s75.5 -43 123.5 -43c66.667 0 116 23 148 69c27.333 40 41 98.333 41 175v57h-2c-20.667 -27.333 -47.167 -49.166 -79.5 -65.499s-65.833 -24.5 -100.5 -24.5c-65.333 0 -119 23.667 -161 71s-63 104.333 -63 171
c0 67.333 21.667 124.166 65 170.499s98.333 69.5 165 69.5c71.333 0 129.333 -30 174 -90h2v80h45z" />
    <glyph glyph-name="h" unicode="h" horiz-adv-x="490" 
d="M77 825l45 0.000976562v-435h2c13.333 26 32 46.167 56 60.5s51 21.5 81 21.5c56.667 0 96.167 -16.167 118.5 -48.5s33.5 -80.5 33.5 -144.5v-279h-45v279c0 24 -1.16699 43.833 -3.5 59.5s-7 31.167 -14 46.5s-18.333 26.666 -34 33.999s-35.5 11 -59.5 11
c-90 0 -135 -67.333 -135 -202v-228h-45v825z" />
    <glyph glyph-name="i" unicode="i" horiz-adv-x="234" 
d="M139 462v-462h-45v462h45zM117 657c11.333 0 21 -4 29 -12s12 -17.667 12 -29s-4 -21 -12 -29s-17.667 -12 -29 -12s-21 4 -29 12s-12 17.667 -12 29s4 21 12 29s17.667 12 29 12z" />
    <glyph glyph-name="j" unicode="j" horiz-adv-x="234" 
d="M139 462v-732h-45v732h45zM117 657c11.333 0 21 -4 29 -12s12 -17.667 12 -29s-4 -21 -12 -29s-17.667 -12 -29 -12s-21 4 -29 12s-12 17.667 -12 29s4 21 12 29s17.667 12 29 12z" />
    <glyph glyph-name="k" unicode="k" horiz-adv-x="427" 
d="M122 825v-559l190 196h58l-194 -200l259 -262h-59l-229 231l-25 -26v-205h-45v825h45z" />
    <glyph glyph-name="l" unicode="l" horiz-adv-x="199" 
d="M122 825v-825h-45v825h45z" />
    <glyph glyph-name="m" unicode="m" horiz-adv-x="725" 
d="M122 462v-57.999h2c10.667 21.333 26.5 38 47.5 50s43.833 18 68.5 18c62 0 105.333 -28 130 -84c12 27.333 30 48.166 54 62.499s51 21.5 81 21.5c54.667 0 92.167 -15.833 112.5 -47.5s30.5 -76.5 30.5 -134.5v-290h-45v296c0 42.667 -6.5 75.667 -19.5 99
s-39.5 35 -79.5 35c-79.333 0 -119 -54.667 -119 -164v-266h-45v285c0 44 -7 79.167 -21 105.5s-41.333 39.5 -82 39.5c-76.667 0 -115 -58.667 -115 -176v-254h-45v462h45z" />
    <glyph glyph-name="n" unicode="n" horiz-adv-x="490" 
d="M122 462v-71.999h2c13.333 26 32 46.167 56 60.5s51 21.5 81 21.5c56.667 0 96.167 -16.167 118.5 -48.5s33.5 -80.5 33.5 -144.5v-279h-45v279c0 24 -1.16699 43.833 -3.5 59.5s-7 31.167 -14 46.5s-18.333 26.666 -34 33.999s-35.5 11 -59.5 11
c-90 0 -135 -67.333 -135 -202v-228h-45v462h45z" />
    <glyph glyph-name="o" unicode="o" horiz-adv-x="547" 
d="M272 472c68 0 125.499 -23.167 172.499 -69.5s70.5 -103.5 70.5 -171.5s-23.5 -125.167 -70.5 -171.5s-104.5 -69.5 -172.5 -69.5c-66 0 -122.5 23.5 -169.5 70.5s-70.5 103.5 -70.5 169.5c0 66.667 23.333 123.667 70 171s103.334 71 170.001 71zM268.999 430
c-54 0 -99.502 -19.668 -136.502 -59.001s-55.5 -86.333 -55.5 -141c0 -53.333 18.5 -99.666 55.5 -138.999s82.5 -59 136.5 -59c56.667 0 104.334 19 143.001 57s58 85 58 141c0 56.667 -19.167 104.167 -57.5 142.5s-86.166 57.5 -143.499 57.5z" />
    <glyph glyph-name="p" unicode="p" horiz-adv-x="560" 
d="M301 430c-56.667 0 -101.168 -20.165 -133.501 -60.498s-48.5 -89.833 -48.5 -148.5c0 -54.667 17 -99.834 51 -135.501s78.333 -53.5 133 -53.5c52.667 0 95.834 19 129.501 57s50.5 83.667 50.5 137c0 55.333 -16.667 103.166 -50 143.499s-77.333 60.5 -132 60.5z
M121.999 462.002v-83.001h2c16.667 28.667 41.334 51.334 74.001 68.001s66.667 25 102 25c68.667 0 123.834 -23.5 165.501 -70.5s62.5 -105.167 62.5 -174.5c0 -68.667 -20.667 -125.334 -62 -170.001s-96 -67 -164 -67c-36.667 0 -70.834 7.83301 -102.501 23.5
s-56.834 37.834 -75.501 66.501h-2v-350h-45v732h45z" />
    <glyph glyph-name="q" unicode="q" horiz-adv-x="560" 
d="M259 430c-56.667 0 -101.168 -20.165 -133.501 -60.498s-48.5 -89.833 -48.5 -148.5c0 -54.667 17 -99.834 51 -135.501s78.333 -53.5 133 -53.5c52.667 0 95.834 19 129.501 57s50.5 83.667 50.5 137c0 55.333 -16.667 103.166 -50 143.499s-77.333 60.5 -132 60.5z
M482.999 462.002v-731.998h-45v350h-2c-18.667 -28.667 -43.834 -50.834 -75.501 -66.501s-65.834 -23.5 -102.501 -23.5c-68 0 -122.667 22.167 -164 66.5s-62 100.833 -62 169.5c0 70 20.833 128.5 62.5 175.5s96.834 70.5 165.501 70.5c35.333 0 69.333 -8.33301 102 -25
s57.334 -39.334 74.001 -68.001h2v83h45z" />
    <glyph glyph-name="r" unicode="r" horiz-adv-x="278" 
d="M122 462v-59.999h2c20 46.667 53.333 70 100 70c16 0 32.333 -3.66699 49 -11l-24 -40c-11.333 6 -22 9 -32 9c-13.333 0 -25.166 -2.33301 -35.499 -7s-18.833 -10.167 -25.5 -16.5s-12.334 -15.333 -17.001 -27s-8 -21.834 -10 -30.501s-3.66699 -20.667 -5 -36
s-2 -26.5 -2 -33.5v-32.5v-11v-236h-45v462h45z" />
    <glyph glyph-name="s" unicode="s" horiz-adv-x="375" 
d="M310 398l-39.001 -20c-16 34.667 -43 52 -81 52c-20 0 -38.167 -7.16699 -54.5 -21.5s-24.5 -31.166 -24.5 -50.499c0 -20 7.66699 -36.333 23 -49s34 -22.834 56 -30.501s44.167 -16 66.5 -25s41.166 -23.5 56.499 -43.5s23 -45.333 23 -76
c0 -42 -14.333 -76.5 -43 -103.5s-64 -40.5 -106 -40.5c-38.667 0 -72.5 11 -101.5 33s-48.167 51.667 -57.5 89l44 14c19.333 -62.667 57.666 -94 114.999 -94c28.667 0 53.167 10 73.5 30s30.5 44.667 30.5 74c0 25.333 -7.66699 44.333 -23 57s-37.666 24 -66.999 34
c-21.333 8 -37.666 14.5 -48.999 19.5s-24.833 12.667 -40.5 23s-27.167 22.5 -34.5 36.5s-11 30.333 -11 49c0 34 12.333 62 37 84s54.334 33 89.001 33c24 0 47.167 -7 69.5 -21s38.5 -31.667 48.5 -53z" />
    <glyph glyph-name="t" unicode="t" horiz-adv-x="209" 
d="M127 420v-420h-45v420h-51v42h51v165h45v-165h81v-42h-81z" />
    <glyph glyph-name="u" unicode="u" horiz-adv-x="472" 
d="M357 462h45.002v-277c0 -22 -0.166992 -38.167 -0.5 -48.5s-2.83301 -24 -7.5 -41s-11.334 -31.5 -20.001 -43.5c-31.333 -41.333 -77.333 -62 -138 -62s-106.667 20.667 -138 62c-8.66699 12 -15.334 26.5 -20.001 43.5s-7.16699 30.667 -7.5 41s-0.5 26.5 -0.5 48.5
v277h45v-261c0 -26 1.16699 -47.667 3.5 -65s7.33301 -34.666 15 -51.999s20 -30.333 37 -39s38.833 -13 65.5 -13s48.5 4.33301 65.5 13s29.333 21.667 37 39s12.667 34.666 15 51.999s3.5 39 3.5 65v261z" />
    <glyph glyph-name="v" unicode="v" horiz-adv-x="433" 
d="M51 462l167 -381l164 381h46l-211 -487l-212 487h46z" />
    <glyph glyph-name="w" unicode="w" horiz-adv-x="752" 
d="M51 462l163 -379l163 404l164 -404l160 379h46l-209 -487l-163 399l-162 -399l-208 487h46z" />
    <glyph glyph-name="x" unicode="x" horiz-adv-x="443" 
d="M192 244l-172 218h54l147 -187l148 187h54l-172 -218l188 -244h-53l-165 212l-164 -212h-53z" />
    <glyph glyph-name="y" unicode="y" horiz-adv-x="460" 
d="M215 -8l-222 470h47l197 -418l177 418h46l-310 -732h-46z" />
    <glyph glyph-name="z" unicode="z" horiz-adv-x="480" 
d="M98 42h375v-42h-470l378 420h-317v42h411z" />
    <glyph glyph-name="braceleft" unicode="{" horiz-adv-x="300" 
d="M41 255v44.001c26 18 44.667 35 56 51s17 37.333 17 64v176c0 59.333 10.167 101.166 30.5 125.499s58.5 37.166 114.5 38.499v-46c-64.667 0 -97 -26.667 -97 -80v-186c0 -47.333 -5.5 -82 -16.5 -104s-29.833 -41.667 -56.5 -59v-5c26 -16.667 44.667 -36.667 56 -60
s17 -59.333 17 -108v-185c0 -53.333 32.333 -80 97 -80v-44c-56 2 -94.167 15 -114.5 39s-30.5 65.333 -30.5 124v176c0 27.333 -5.83301 49.333 -17.5 66s-30.167 34.334 -55.5 53.001z" />
    <glyph glyph-name="bar" unicode="|" horiz-adv-x="320" 
d="M136 -214v1000h48v-1000h-48z" />
    <glyph glyph-name="braceright" unicode="}" horiz-adv-x="300" 
d="M259 299v-44.001c-25.333 -18.667 -43.833 -36.334 -55.5 -53.001s-17.5 -38.667 -17.5 -66v-176c0 -58.667 -10.167 -100 -30.5 -124s-58.5 -37 -114.5 -39v44c64.667 0 97 26.667 97 80v185c0 48.667 5.66699 84.667 17 108s30 43.333 56 60v5
c-26.667 17.333 -45.5 37 -56.5 59s-16.5 56.667 -16.5 104v186c0 53.333 -32.333 80 -97 80v46c56 -1.33301 94.167 -14.166 114.5 -38.499s30.5 -66.166 30.5 -125.499v-176c0 -26.667 5.66699 -48 17 -64s30 -33 56 -51z" />
    <glyph glyph-name="asciitilde" unicode="~" 
d="M201 314c26 0 65.002 -12 117.002 -36c6.66699 -2.66699 16.167 -7 28.5 -13l29 -14c7 -3.33301 14.833 -6.33301 23.5 -9s16 -4 22 -4c35.333 0 67.666 26.667 96.999 80l48 -23c-46 -72.667 -94.667 -109 -146 -109c-24.667 0 -61 12.667 -109 38
c-49.333 25.333 -86 38 -110 38c-20.667 0 -38.5 -6.33301 -53.5 -19s-30.5 -31 -46.5 -55l-47 23c0.666992 1.33301 5 6.83301 13 16.5l15 18l14.5 16.5c7.66699 8.66699 13.5 14.5 17.5 17.5l18 13c8 5.66699 15.167 9.66699 21.5 12s13.666 4.5 21.999 6.5
s16.833 3 25.5 3z" />
    <glyph glyph-name="nbspace" unicode="&#xa0;" horiz-adv-x="310" 
 />
    <glyph glyph-name="exclamdown" unicode="&#xa1;" horiz-adv-x="320" 
d="M160 472c11.333 0 21 -4 29 -12s12 -17.667 12 -29s-4 -21 -12 -29s-17.667 -12 -29 -12s-21 4 -29 12s-12 17.667 -12 29s4 21 12 29s17.667 12 29 12zM184 321v-611h-48v611h48z" />
    <glyph glyph-name="cent" unicode="&#xa2;" 
d="M506 568l0.000976562 -60.001c-42 46.667 -90.333 72 -145 76v-399c60 5.33301 109.667 33 149 83h2v-61c-46.667 -40 -97 -61.333 -151 -64v-128h-45v129c-59.333 6 -109 31.667 -149 77s-60 98 -60 158c0 64 19.333 119.333 58 166s89 73.334 151 80.001v117h45v-116
c53.333 -2 101.666 -21.333 144.999 -58zM316.001 185.999v396c-47.333 -6.66699 -86.5 -29.167 -117.5 -67.5s-46.5 -81.833 -46.5 -130.5s15.5 -92.167 46.5 -130.5s70.167 -60.833 117.5 -67.5z" />
    <glyph glyph-name="sterling" unicode="&#xa3;" 
d="M91 -10l-26.999 39.001c16.667 19.333 37.167 35.166 61.5 47.499s48.5 18.166 72.5 17.499c42.667 36.667 64 76.334 64 119.001l-3 29h-124v45h112l-81 138c-18.667 29.333 -32.334 54.833 -41.001 76.5s-13 46.167 -13 73.5c0 54 20 99 60 135s87 54 141 54
c55.333 0 101.5 -19.5 138.5 -58.5s54.833 -85.833 53.5 -140.5h-48c0.666992 44.667 -13 81.5 -41 110.5s-64.333 43.5 -109 43.5c-40 0 -74.5 -14.833 -103.5 -44.5s-43.5 -64.5 -43.5 -104.5c0 -30 15.333 -69 46 -117c2.66699 -4.66699 10.5 -17.5 23.5 -38.5
l27.5 -44.5c5.33301 -8.66699 12.333 -21.167 21 -37.5s15.667 -31.5 21 -45.5h136v-45h-127l2 -33c0 -46 -19 -88 -57 -126l10 -3c4.66699 -1.33301 18.834 -6.5 42.501 -15.5s44.167 -16.167 61.5 -21.5s31.333 -8 42 -8c42 0 77.333 27.333 106 82l41 -24
c-16 -28.667 -36.333 -53 -61 -73s-51.334 -30 -80.001 -30c-24.667 0 -62.334 10 -113.001 30c-48.667 19.333 -82.667 29 -102 29c-33.333 0 -69.666 -19.667 -108.999 -59z" />
    <glyph glyph-name="currency" unicode="&#xa4;" 
d="M611 685c-54.667 52.667 -123.666 79.001 -206.999 79.001c-87.333 0 -159.666 -31.667 -216.999 -95c-52.667 -58.667 -84.334 -134.334 -95.001 -227.001h-70l-14 -45h80v-21c0 -12 0.666992 -30 2 -54h-68l-14 -45h88c14.667 -84.667 48 -153 100 -205
c54.667 -54.667 124.667 -82 210 -82c45.333 0 81 3.66699 107 11c26 8.66699 53.667 24 83 46v58c-27.333 -25.333 -51.666 -42.333 -72.999 -51c-29.333 -12.667 -69 -19 -119 -19c-70 0 -128.333 23.333 -175 70c-42 43.333 -70 100.666 -84 171.999h343l14 45h-364
c-1.33301 22.667 -2 39.334 -2 50.001v25h389l14 45h-399c10 89.333 39 158.333 87 207c46 46.667 103.333 70 172 70c45.333 0 82.666 -6.5 111.999 -19.5s57.666 -35.167 84.999 -66.5z" />
    <glyph glyph-name="yen" unicode="&#xa5;" 
d="M286 322l-43 75h-161v45h134l-181 312h58l217 -377l217 377h58l-181 -312h134v-45h-160l-44 -75h204v-45h-204v-277h-48v277h-204v45h204z" />
    <glyph glyph-name="brokenbar" unicode="&#xa6;" horiz-adv-x="320" 
d="M136 -89v250h48v-250h-48zM136 411v250h48v-250h-48z" />
    <glyph glyph-name="section" unicode="&#xa7;" 
d="M310 155c36 0 67.333 13 94 39s40 57 40 93s-13.333 67.333 -40 94s-58 40 -94 40c-36.667 0 -68.334 -13.333 -95.001 -40s-40 -58 -40 -94s13.333 -67 40 -93s58.334 -39 95.001 -39zM144 -11l48 -0.00488281v-13c0.666992 -42 10 -73.167 28 -93.5
s47.667 -30.5 89 -30.5c38 0 69 10.333 93 31s36 49.334 36 86.001c0 20.667 -3.83301 38.334 -11.5 53.001s-20.334 27.334 -38.001 38.001s-32 18.334 -43 23.001s-28.833 11 -53.5 19c-54 18 -95 40 -123 66s-42 64.667 -42 116c0 39.333 9.83301 74.166 29.5 104.499
s47.5 52.833 83.5 67.5c-33.333 16 -57.666 35.833 -72.999 59.5s-23 53.834 -23 90.501c0 50 16.5 88.833 49.5 116.5s74.833 41.5 125.5 41.5c59.333 0 100.833 -14.667 124.5 -44s37.834 -75 42.501 -137h-48c-1.33301 90.667 -42.666 136 -123.999 136
c-36 0 -65.333 -10.833 -88 -32.5s-34 -50.5 -34 -86.5c0 -9.33301 0.833008 -18 2.5 -26s3.5 -15 5.5 -21s5.66699 -12 11 -18s9.5 -10.833 12.5 -14.5s8.5 -7.83398 16.5 -12.501s13.667 -8.16699 17 -10.5s10.166 -5.33301 20.499 -9s17.166 -6.16699 20.499 -7.5
s11 -4 23 -8s19.333 -6.33301 22 -7c22.667 -7.33301 41.167 -14.666 55.5 -21.999s29.5 -17.666 45.5 -30.999s28 -30.833 36 -52.5s12 -47.167 12 -76.5c0 -74 -37.667 -129.667 -113 -167c71.333 -27.333 107 -79 107 -155c0 -50.667 -16.667 -89.167 -50 -115.5
s-76 -39.5 -128 -39.5c-58.667 0 -101 14.333 -127 43s-38.333 71.667 -37 129v10z" />
    <glyph glyph-name="dieresis" unicode="&#xa8;" horiz-adv-x="421" 
d="M117 674c11.333 0 20.833 -4 28.5 -12s11.5 -17.333 11.5 -28s-3.83301 -20 -11.5 -28s-17.167 -12 -28.5 -12s-20.833 4 -28.5 12s-11.5 17.333 -11.5 28s3.83301 20 11.5 28s17.167 12 28.5 12zM304 674c10.667 0 20 -4 28 -12s12 -17.333 12 -28s-4 -20 -12 -28
s-17.333 -12 -28 -12s-20 4 -28 12s-12 17.333 -12 28s4 20 12 28s17.333 12 28 12z" />
    <glyph glyph-name="copyright" unicode="&#xa9;" horiz-adv-x="800" 
d="M401 -10c-107.333 0 -198.833 38 -274.5 114s-113.5 167.333 -113.5 274s37.833 197.667 113.5 273s167.167 113 274.5 113c106.667 0 197.667 -37.667 273 -113s113 -166.333 113 -273c0 -107.333 -37.667 -198.833 -113 -274.5s-166.333 -113.5 -273 -113.5zM401 38
c94 0 173.833 33 239.5 99s98.5 146.333 98.5 241c0 94 -32.833 173.833 -98.5 239.5s-145.5 98.5 -239.5 98.5c-94.667 0 -175 -32.833 -241 -98.5s-99 -145.5 -99 -239.5c0 -94.667 33 -175 99 -241s146.333 -99 241 -99zM549 308l47.999 0.000976562
c-4.66699 -45.333 -24.167 -81.666 -58.5 -108.999s-74.5 -41 -120.5 -41c-63.333 0 -114.833 21.167 -154.5 63.5s-59.5 95.5 -59.5 159.5c0 65.333 19 118.666 57 159.999s89.333 62 154 62c47.333 0 87.833 -13 121.5 -39s53.834 -61.667 60.501 -107h-48
c-5.33301 29.333 -20.833 53 -46.5 71s-54.5 27 -86.5 27c-50 0 -89.833 -16.5 -119.5 -49.5s-44.5 -74.167 -44.5 -123.5c0 -48 15.5 -89.333 46.5 -124s70.833 -52 119.5 -52c32 0 60.833 9.16699 86.5 27.5s40.5 43.166 44.5 74.499z" />
    <glyph glyph-name="ordfeminine" unicode="&#xaa;" horiz-adv-x="336" 
d="M163 730c-30.667 0 -56.167 -11 -76.5 -33s-30.5 -47.667 -30.5 -77c0 -30 10 -56 30 -78s46.333 -33 79 -33c35.333 0 63.5 11 84.5 33s31.5 49 31.5 81c0 30 -11.167 55.333 -33.5 76s-50.5 31 -84.5 31zM315 758l-0.000976562 -277h-29v50h-2
c-10.667 -17.333 -26.667 -31 -48 -41s-43.333 -15 -66 -15c-44.667 0 -80.5 14 -107.5 42s-40.5 62.667 -40.5 104s13.333 75.5 40 102.5s62.334 40.5 107.001 40.5c50.667 0 89 -18 115 -54h2v48h29z" />
    <glyph glyph-name="guillemotleft" unicode="&#xab;" horiz-adv-x="397" 
d="M209 320l121 -142l-29 -27l-146 169l146 169l29 -27zM89 320l121 -142l-29 -27l-146 169l146 169l29 -27z" />
    <glyph glyph-name="logicalnot" unicode="&#xac;" 
d="M518 99v218h-464v48h512v-266h-48z" />
    <glyph glyph-name="registered" unicode="&#xae;" horiz-adv-x="800" 
d="M401 -10c-107.333 0 -198.833 38 -274.5 114s-113.5 167.333 -113.5 274s37.833 197.667 113.5 273s167.167 113 274.5 113c106.667 0 197.667 -37.667 273 -113s113 -166.333 113 -273c0 -107.333 -37.667 -198.833 -113 -274.5s-166.333 -113.5 -273 -113.5zM401 38
c94 0 173.833 33 239.5 99s98.5 146.333 98.5 241c0 94 -32.833 173.833 -98.5 239.5s-145.5 98.5 -239.5 98.5c-94.667 0 -175 -32.833 -241 -98.5s-99 -145.5 -99 -239.5c0 -94.667 33 -175 99 -241s146.333 -99 241 -99zM462 353l128 -194.999h-62l-121 195h-99v-195h-48
v423h185c54 0 92.5 -9.5 115.5 -28.5s34.5 -46.833 34.5 -83.5c0 -74.667 -44.333 -113.334 -133 -116.001zM308 401.001l82.998 0.000976562c4 0 11 -0.166992 21 -0.5s17.667 -0.333008 23 0s12.833 0.666016 22.5 0.999023s17.5 1.16602 23.5 2.49902s12.833 3 20.5 5
s13.834 4.66699 18.501 8s9.33398 7.5 14.001 12.5s8 10.833 10 17.5s3 14.334 3 23.001c0 42 -38 63 -114 63h-125v-132z" />
    <glyph glyph-name="macron" unicode="&#xaf;" horiz-adv-x="456" 
d="M75 674h305v-45h-305v45z" />
    <glyph glyph-name="degree" unicode="&#xb0;" horiz-adv-x="400" 
d="M350 614c0 -41.333 -14.668 -76.666 -44.001 -105.999s-64.666 -44 -105.999 -44s-76.666 14.667 -105.999 44s-44 64.666 -44 105.999c-0.666992 41.333 13.833 76.666 43.5 105.999s65.167 44 106.5 44s76.666 -14.667 105.999 -44s44 -64.666 44 -105.999z
M198.999 722c-30 0 -55.334 -10.5 -76.001 -31.5s-31 -46.5 -31 -76.5c0 -30.667 10.333 -56.334 31 -77.001s46.334 -31 77.001 -31c30 0 55.5 10.333 76.5 31s31.5 46.334 31.5 77.001c0 30 -10.5 55.5 -31.5 76.5s-46.833 31.5 -77.5 31.5z" />
    <glyph glyph-name="plusminus" unicode="&#xb1;" 
d="M286 320v192h48v-192h232v-48h-232v-192h-48v192h-232v48h232zM54 0v48h512v-48h-512z" />
    <glyph glyph-name="twosuperior" unicode="&#xb2;" horiz-adv-x="372" 
d="M114 340l222 -0.00195312v-34h-302l182 185c18 18 31.667 32.5 41 43.5s19.5 26.333 30.5 46s16.5 37.5 16.5 53.5c0 28.667 -10.833 51.834 -32.5 69.501s-48.5 26.5 -80.5 26.5c-34 0 -61.333 -9 -82 -27s-31 -42 -31 -72h-34c1.33301 36 11.666 64.333 30.999 85
c30 32 68.667 48 116 48c40.667 0 75.334 -12.667 104.001 -38s43 -56.666 43 -93.999c0 -44 -29.333 -95.333 -88 -154z" />
    <glyph glyph-name="threesuperior" unicode="&#xb3;" horiz-adv-x="372" 
d="M183 525l0.00488281 34.001c29.333 0 53.666 8.16699 72.999 24.5s29 38.166 29 65.499c0 24 -9 43.5 -27 58.5s-40.667 22.5 -68 22.5c-58 0 -88.667 -26 -92 -78h-34c3.33301 34.667 16 62 38 82s51.667 30 89 30c35.333 0 65.5 -11.333 90.5 -34s37.5 -50 37.5 -82
c0 -23.333 -6.66699 -44.333 -20 -63s-31.333 -32.667 -54 -42c24 -8.66699 43.5 -23.167 58.5 -43.5s22.5 -42.5 22.5 -66.5c0 -37.333 -13.833 -68.833 -41.5 -94.5s-61.834 -38.5 -102.501 -38.5c-37.333 0 -69.333 11 -96 33s-40 50 -40 84h34
c3.33301 -26 13.666 -46.333 30.999 -61s40.666 -22 69.999 -22c31.333 0 57.666 9.16699 78.999 27.5s32 41.5 32 69.5c0 28.667 -10.333 51.5 -31 68.5s-46.667 25.5 -78 25.5z" />
    <glyph glyph-name="acute" unicode="&#xb4;" horiz-adv-x="313" 
d="M176 714l61 -19l-124 -145l-38 17z" />
    <glyph glyph-name="paragraph" unicode="&#xb6;" 
d="M282 -178v548.001c-50 -0.666992 -91.167 17.666 -123.5 54.999s-48.5 82.333 -48.5 135c0 129.333 67.667 194 203 194h197v-45h-40v-887h-48v887h-92v-887h-48z" />
    <glyph glyph-name="periodcentered" unicode="&#xb7;" horiz-adv-x="310" 
d="M155 297c11.333 0 21 -4 29 -12s12 -17.667 12 -29s-4 -21 -12 -29s-17.667 -12 -29 -12s-21 4 -29 12s-12 17.667 -12 29s4 21 12 29s17.667 12 29 12z" />
    <glyph glyph-name="cedilla" unicode="&#xb8;" horiz-adv-x="299" 
d="M224 -42l-111 -141l-38 19l93 144z" />
    <glyph glyph-name="onesuperior" unicode="&#xb9;" horiz-adv-x="372" 
d="M210 720h-76l15 34h95v-448h-34v414z" />
    <glyph glyph-name="ordmasculine" unicode="&#xba;" horiz-adv-x="328" 
d="M163 764c44 0 81.335 -13.8311 112.002 -41.498s46 -61.834 46 -102.501c0 -41.333 -15.333 -75.833 -46 -103.5s-68 -41.5 -112 -41.5c-42.667 0 -79.334 14.167 -110.001 42.5s-46 62.166 -46 101.499c0 40 15.167 74.167 45.5 102.5s67.166 42.5 110.499 42.5z
M161.002 730.002c-32 0 -59.167 -11.167 -81.5 -33.5s-33.5 -48.5 -33.5 -78.5c0 -29.333 11.167 -54.833 33.5 -76.5s49.5 -32.5 81.5 -32.5c33.333 0 61.833 10.5 85.5 31.5s35.5 46.833 35.5 77.5c0 31.333 -11.667 57.833 -35 79.5s-52 32.5 -86 32.5z" />
    <glyph glyph-name="guillemotright" unicode="&#xbb;" horiz-adv-x="397" 
d="M67 178l121 142l-121 142l29 27l146 -169l-146 -169zM187 178l121 142l-121 142l29 27l146 -169l-146 -169z" />
    <glyph glyph-name="onequarter" unicode="&#xbc;" horiz-adv-x="930" 
d="M176 720h-76l15 34h95v-448h-34v414zM764 116h66v-34h-66v-82h-34v82h-259v4l287 382h6v-352zM730 116v251h-5l-186 -247v-4h191zM649 772l32 -18l-447 -771l-32 18z" />
    <glyph glyph-name="onehalf" unicode="&#xbd;" horiz-adv-x="930" 
d="M176 720h-76l15 34h95v-448h-34v414zM606 34l222 -0.00195312v-34h-302l182 185c18 18 31.667 32.5 41 43.5s19.5 26.333 30.5 46s16.5 37.5 16.5 53.5c0 28.667 -10.833 51.834 -32.5 69.501s-48.5 26.5 -80.5 26.5c-34 0 -61.333 -9 -82 -27s-31 -42 -31 -72h-34
c1.33301 36 11.666 64.333 30.999 85c30 32 68.667 48 116 48c40.667 0 75.334 -12.667 104.001 -38s43 -56.666 43 -93.999c0 -44 -29.333 -95.333 -88 -154zM605 771.998l32 -18l-447 -771l-32 18z" />
    <glyph glyph-name="threequarters" unicode="&#xbe;" horiz-adv-x="930" 
d="M804 116h66v-34h-66v-82h-34v82h-259v4l287 382h6v-352zM770 116v251h-5l-186 -247v-4h191zM197 525l0.00488281 34.001c29.333 0 53.666 8.16699 72.999 24.5s29 38.166 29 65.499c0 24 -9 43.5 -27 58.5s-40.667 22.5 -68 22.5c-58 0 -88.667 -26 -92 -78h-34
c3.33301 34.667 16 62 38 82s51.667 30 89 30c35.333 0 65.5 -11.333 90.5 -34s37.5 -50 37.5 -82c0 -23.333 -6.66699 -44.333 -20 -63s-31.333 -32.667 -54 -42c24 -8.66699 43.5 -23.167 58.5 -43.5s22.5 -42.5 22.5 -66.5c0 -37.333 -13.833 -68.833 -41.5 -94.5
s-61.834 -38.5 -102.501 -38.5c-37.333 0 -69.333 11 -96 33s-40 50 -40 84h34c3.33301 -26 13.666 -46.333 30.999 -61s40.666 -22 69.999 -22c31.333 0 57.666 9.16699 78.999 27.5s32 41.5 32 69.5c0 28.667 -10.333 51.5 -31 68.5s-46.667 25.5 -78 25.5z
M702.005 772.001l32 -18l-447 -771l-32 18z" />
    <glyph glyph-name="questiondown" unicode="&#xbf;" horiz-adv-x="491" 
d="M137 159l-48.0029 -0.00195312c-2 46 11.667 84.333 41 115s67.666 46 114.999 46c44 0 81.333 -14.167 112 -42.5s46 -63.833 46 -106.5c0 -43.333 -12.5 -76.833 -37.5 -100.5s-60.167 -41.167 -105.5 -52.5l-48 -13.5c-10.667 -3 -23.5 -8.16699 -38.5 -15.5
s-26 -15.333 -33 -24s-13.167 -20.167 -18.5 -34.5s-8 -31.166 -8 -50.499c0 -38 12.5 -70.333 37.5 -97s56.833 -40 95.5 -40c37.333 0 68.5 12.167 93.5 36.5s37.167 54.5 36.5 90.5c0 21.333 -1.66699 39 -5 53h46c4.66699 -24.667 7 -46 7 -64
c0 -46.667 -17.667 -85.167 -53 -115.5s-77.333 -45.5 -126 -45.5c-53.333 0 -96.666 16.833 -129.999 50.5s-50 76.834 -50 129.501s13.833 92.167 41.5 118.5s69.167 46.5 124.5 60.5c16.667 4 29.334 7.33301 38.001 10s19.334 7 32.001 13s22.167 12.5 28.5 19.5
s12 16.333 17 28s7.5 25.167 7.5 40.5c0 31.333 -10.5 57 -31.5 77s-47.833 30 -80.5 30s-58.667 -11.5 -78 -34.5s-28.666 -50.167 -27.999 -81.5zM247.997 471.998c11.333 0 21 -4 29 -12s12 -17.667 12 -29s-4 -21 -12 -29s-17.667 -12 -29 -12s-21 4 -29 12
s-12 17.667 -12 29s4 21 12 29s17.667 12 29 12z" />
    <glyph glyph-name="Agrave" unicode="&#xc0;" horiz-adv-x="641" 
d="M486 248h-331l-101 -248h-49l316 779l315 -779h-49zM468 293l-147 364l-148 -364h295zM239 952l61 19l101 -147l-38 -17z" />
    <glyph glyph-name="Aacute" unicode="&#xc1;" horiz-adv-x="641" 
d="M486 248h-331l-101 -248h-49l316 779l315 -779h-49zM468 293l-147 364l-148 -364h295zM340 971l61 -19l-124 -145l-38 17z" />
    <glyph glyph-name="Acircumflex" unicode="&#xc2;" horiz-adv-x="641" 
d="M486 248h-331l-101 -248h-49l316 779l315 -779h-49zM468 293l-147 364l-148 -364h295zM183 845l138 106l138 -106l-38 -29l-100 77l-102 -77z" />
    <glyph glyph-name="Atilde" unicode="&#xc3;" horiz-adv-x="641" 
d="M486 248h-331l-101 -248h-49l316 779l315 -779h-49zM468 293l-147 364l-148 -364h295zM206 843l-29.999 22c7.33301 18 17.833 33.167 31.5 45.5s29.167 18.5 46.5 18.5c16 0 39.333 -6.33301 70 -19c34 -13.333 55 -20 63 -20c22.667 0 38.667 13.667 48 41l29 -22
c-4.66699 -18 -14.667 -33.333 -30 -46s-32.333 -19 -51 -19c-11.333 0 -33 6.66699 -65 20c-30.667 13.333 -53.334 20 -68.001 20c-20 0 -34.667 -13.667 -44 -41z" />
    <glyph glyph-name="Adieresis" unicode="&#xc4;" horiz-adv-x="641" 
d="M486 248h-331l-101 -248h-49l316 779l315 -779h-49zM468 293l-147 364l-148 -364h295zM227 931c11.333 0 20.833 -3.83301 28.5 -11.5s11.5 -17.167 11.5 -28.5s-3.83301 -20.833 -11.5 -28.5s-17.167 -11.5 -28.5 -11.5s-20.833 3.83301 -28.5 11.5
s-11.5 17.167 -11.5 28.5s3.83301 20.833 11.5 28.5s17.167 11.5 28.5 11.5zM414 931c10.667 0 20 -3.83301 28 -11.5s12 -17.167 12 -28.5s-4 -20.833 -12 -28.5s-17.333 -11.5 -28 -11.5s-20 3.83301 -28 11.5s-12 17.167 -12 28.5s4 20.833 12 28.5s17.333 11.5 28 11.5z
" />
    <glyph glyph-name="Aring" unicode="&#xc5;" horiz-adv-x="641" 
d="M486 248h-331l-101 -248h-49l316 779l315 -779h-49zM468 293l-147 364l-148 -364h295zM321 971c24 0 44.5 -8.5 61.5 -25.5s25.5 -37.5 25.5 -61.5s-8.5 -44.5 -25.5 -61.5s-37.5 -25.5 -61.5 -25.5s-44.5 8.5 -61.5 25.5s-25.5 37.5 -25.5 61.5s8.5 44.5 25.5 61.5
s37.5 25.5 61.5 25.5zM321 931c-12.667 0 -23.667 -4.5 -33 -13.5s-14 -20.167 -14 -33.5s4.66699 -24.5 14 -33.5s20.333 -13.5 33 -13.5s23.667 4.5 33 13.5s14 20.167 14 33.5s-4.66699 24.5 -14 33.5s-20.333 13.5 -33 13.5z" />
    <glyph glyph-name="AE" unicode="&#xc6;" horiz-adv-x="942" 
d="M480 248h-323l-98 -248h-54l304 754h329l17 -45h-311l112 -274h303l19 -45h-303l140 -345h312l18 -45h-365zM461 293l-144 355l-141 -355h285z" />
    <glyph glyph-name="Ccedilla" unicode="&#xc7;" horiz-adv-x="739" 
d="M680 666l-0.00292969 -66c-29.333 35.333 -67.166 64 -113.499 86s-92.833 33 -139.5 33c-93.333 0 -173.833 -34.5 -241.5 -103.5s-101.5 -150.167 -101.5 -243.5c0 -89.333 33.667 -167 101 -233c32.667 -31.333 70.334 -56.5 113.001 -75.5s85.667 -28.5 129 -28.5
c44 0 90.333 10.833 139 32.5s86.667 49.167 114 82.5v-66c-75.333 -62.667 -159 -94 -251 -94c-105.333 0 -197.166 38.167 -275.499 114.5s-117.5 166.833 -117.5 271.5c0 106.667 38.833 198 116.5 274s170.167 114 277.5 114c96 0 179.333 -32.667 250 -98zM443.997 -42
l-111 -141l-38 19l93 144z" />
    <glyph glyph-name="Egrave" unicode="&#xc8;" horiz-adv-x="507" 
d="M441 709h-312v-274h304v-45h-304v-345h312v-45h-360v754h360v-45zM172 952l61 19l101 -147l-38 -17z" />
    <glyph glyph-name="Eacute" unicode="&#xc9;" horiz-adv-x="507" 
d="M441 709h-312v-274h304v-45h-304v-345h312v-45h-360v754h360v-45zM293 971l61 -19l-124 -145l-38 17z" />
    <glyph glyph-name="Ecircumflex" unicode="&#xca;" horiz-adv-x="507" 
d="M441 709h-312v-274h304v-45h-304v-345h312v-45h-360v754h360v-45zM116 845l138 106l138 -106l-38 -29l-100 77l-102 -77z" />
    <glyph glyph-name="Edieresis" unicode="&#xcb;" horiz-adv-x="507" 
d="M441 709h-312v-274h304v-45h-304v-345h312v-45h-360v754h360v-45zM160 931c10.667 0 20 -3.83301 28 -11.5s12 -17.167 12 -28.5s-4 -20.833 -12 -28.5s-17.333 -11.5 -28 -11.5s-20 3.83301 -28 11.5s-12 17.167 -12 28.5s4 20.833 12 28.5s17.333 11.5 28 11.5z
M347 931c11.333 0 20.833 -3.83301 28.5 -11.5s11.5 -17.167 11.5 -28.5s-3.83301 -20.833 -11.5 -28.5s-17.167 -11.5 -28.5 -11.5s-20.833 3.83301 -28.5 11.5s-11.5 17.167 -11.5 28.5s3.83301 20.833 11.5 28.5s17.167 11.5 28.5 11.5z" />
    <glyph glyph-name="Igrave" unicode="&#xcc;" horiz-adv-x="210" 
d="M129 754v-754h-48v754h48zM24 952l61 19l101 -147l-38 -17z" />
    <glyph glyph-name="Iacute" unicode="&#xcd;" horiz-adv-x="210" 
d="M129 754v-754h-48v754h48zM125 971l61 -19l-124 -145l-38 17z" />
    <glyph glyph-name="Icircumflex" unicode="&#xce;" horiz-adv-x="210" 
d="M129 754v-754h-48v754h48zM-33 845l138 106l138 -106l-38 -29l-100 77l-102 -77z" />
    <glyph glyph-name="Idieresis" unicode="&#xcf;" horiz-adv-x="210" 
d="M129 754v-754h-48v754h48zM12 931c10.667 0 20 -3.83301 28 -11.5s12 -17.167 12 -28.5s-4 -20.833 -12 -28.5s-17.333 -11.5 -28 -11.5s-20 3.83301 -28 11.5s-12 17.167 -12 28.5s4 20.833 12 28.5s17.333 11.5 28 11.5zM199 931c11.333 0 20.833 -3.83301 28.5 -11.5
s11.5 -17.167 11.5 -28.5s-3.83301 -20.833 -11.5 -28.5s-17.167 -11.5 -28.5 -11.5s-20.833 3.83301 -28.5 11.5s-11.5 17.167 -11.5 28.5s3.83301 20.833 11.5 28.5s17.167 11.5 28.5 11.5z" />
    <glyph glyph-name="Eth" unicode="&#xd0;" horiz-adv-x="652" 
d="M129 709l0.000976562 -275.001h173v-45h-173v-344h87c107.333 0 191.666 30.333 252.999 91c66.667 66.667 100 146.667 100 240c0 100.667 -36.333 184.334 -109 251.001c-34 30.667 -70.5 52 -109.5 64s-83.833 18 -134.5 18h-87zM81.001 -0.000976562l0.000976562 389
h-81v45h81v320h136c60 0 111.833 -6.83301 155.5 -20.5s85.167 -38.5 124.5 -74.5c80 -74.667 120 -169 120 -283c0 -110 -38.667 -202 -116 -276c-39.333 -38 -81.333 -64.167 -126 -78.5s-97.334 -21.5 -158.001 -21.5h-136z" />
    <glyph glyph-name="Ntilde" unicode="&#xd1;" horiz-adv-x="843" 
d="M762 754v-779l-633 673v-648h-48v764l633 -668v658h48zM307 843l-29.999 22c7.33301 18 17.833 33.167 31.5 45.5s29.167 18.5 46.5 18.5c16 0 39.333 -6.33301 70 -19c34 -13.333 55 -20 63 -20c22.667 0 38.667 13.667 48 41l29 -22
c-4.66699 -18 -14.667 -33.333 -30 -46s-32.333 -19 -51 -19c-11.333 0 -33 6.66699 -65 20c-30.667 13.333 -53.334 20 -68.001 20c-20 0 -34.667 -13.667 -44 -41z" />
    <glyph glyph-name="Ograve" unicode="&#xd2;" horiz-adv-x="854" 
d="M427 764c106 0 197.667 -38 275 -114s116 -167 116 -273s-38.667 -197 -116 -273s-169 -114 -275 -114s-197.667 38 -275 114s-116 167 -116 273s38.5 197 115.5 273s168.833 114 275.5 114zM427 719c-94 0 -174.667 -33.6689 -242 -101.002s-101 -147.666 -101 -240.999
s33.667 -173.666 101 -240.999s148 -101 242 -101c93.333 0 173.833 33.833 241.5 101.5s101.5 147.834 101.5 240.501c0 93.333 -33.833 173.666 -101.5 240.999s-148.167 101 -241.5 101zM346 951.998l61 19l101 -147l-38 -17z" />
    <glyph glyph-name="Oacute" unicode="&#xd3;" horiz-adv-x="854" 
d="M427 764c106 0 197.667 -38 275 -114s116 -167 116 -273s-38.667 -197 -116 -273s-169 -114 -275 -114s-197.667 38 -275 114s-116 167 -116 273s38.5 197 115.5 273s168.833 114 275.5 114zM427 719c-94 0 -174.667 -33.6689 -242 -101.002s-101 -147.666 -101 -240.999
s33.667 -173.666 101 -240.999s148 -101 242 -101c93.333 0 173.833 33.833 241.5 101.5s101.5 147.834 101.5 240.501c0 93.333 -33.833 173.666 -101.5 240.999s-148.167 101 -241.5 101zM447 970.998l61 -19l-124 -145l-38 17z" />
    <glyph glyph-name="Ocircumflex" unicode="&#xd4;" horiz-adv-x="854" 
d="M427 764c106 0 197.667 -38 275 -114s116 -167 116 -273s-38.667 -197 -116 -273s-169 -114 -275 -114s-197.667 38 -275 114s-116 167 -116 273s38.5 197 115.5 273s168.833 114 275.5 114zM427 719c-94 0 -174.667 -33.6689 -242 -101.002s-101 -147.666 -101 -240.999
s33.667 -173.666 101 -240.999s148 -101 242 -101c93.333 0 173.833 33.833 241.5 101.5s101.5 147.834 101.5 240.501c0 93.333 -33.833 173.666 -101.5 240.999s-148.167 101 -241.5 101zM289 844.998l138 106l138 -106l-38 -29l-100 77l-102 -77z" />
    <glyph glyph-name="Otilde" unicode="&#xd5;" horiz-adv-x="854" 
d="M427 764c106 0 197.667 -38 275 -114s116 -167 116 -273s-38.667 -197 -116 -273s-169 -114 -275 -114s-197.667 38 -275 114s-116 167 -116 273s38.5 197 115.5 273s168.833 114 275.5 114zM427 719c-94 0 -174.667 -33.6689 -242 -101.002s-101 -147.666 -101 -240.999
s33.667 -173.666 101 -240.999s148 -101 242 -101c93.333 0 173.833 33.833 241.5 101.5s101.5 147.834 101.5 240.501c0 93.333 -33.833 173.666 -101.5 240.999s-148.167 101 -241.5 101zM313 842.998l-29.999 22c7.33301 18 17.833 33.167 31.5 45.5
s29.167 18.5 46.5 18.5c16 0 39.333 -6.33301 70 -19c34 -13.333 55 -20 63 -20c22.667 0 38.667 13.667 48 41l29 -22c-4.66699 -18 -14.667 -33.333 -30 -46s-32.333 -19 -51 -19c-11.333 0 -33 6.66699 -65 20c-30.667 13.333 -53.334 20 -68.001 20
c-20 0 -34.667 -13.667 -44 -41z" />
    <glyph glyph-name="Odieresis" unicode="&#xd6;" horiz-adv-x="854" 
d="M427 764c106 0 197.667 -38 275 -114s116 -167 116 -273s-38.667 -197 -116 -273s-169 -114 -275 -114s-197.667 38 -275 114s-116 167 -116 273s38.5 197 115.5 273s168.833 114 275.5 114zM427 719c-94 0 -174.667 -33.6689 -242 -101.002s-101 -147.666 -101 -240.999
s33.667 -173.666 101 -240.999s148 -101 242 -101c93.333 0 173.833 33.833 241.5 101.5s101.5 147.834 101.5 240.501c0 93.333 -33.833 173.666 -101.5 240.999s-148.167 101 -241.5 101zM334 930.998c10.667 0 20 -3.83301 28 -11.5s12 -17.167 12 -28.5
s-4 -20.833 -12 -28.5s-17.333 -11.5 -28 -11.5s-20 3.83301 -28 11.5s-12 17.167 -12 28.5s4 20.833 12 28.5s17.333 11.5 28 11.5zM521 930.998c11.333 0 20.833 -3.83301 28.5 -11.5s11.5 -17.167 11.5 -28.5s-3.83301 -20.833 -11.5 -28.5s-17.167 -11.5 -28.5 -11.5
s-20.833 3.83301 -28.5 11.5s-11.5 17.167 -11.5 28.5s3.83301 20.833 11.5 28.5s17.167 11.5 28.5 11.5z" />
    <glyph glyph-name="multiply" unicode="&#xd7;" 
d="M279 256l-225 222l30 34l226 -226l226 226l30 -34l-224 -222l224 -224l-30 -32l-226 225l-225 -225l-31 32z" />
    <glyph glyph-name="Oslash" unicode="&#xd8;" horiz-adv-x="854" 
d="M171 151l481 480.999c-64.667 58 -139.667 87 -225 87c-94 0 -174.667 -33.667 -242 -101s-101 -147.666 -101 -240.999c0 -86 29 -161.333 87 -226zM680 604.999l-481 -482.001c66 -58.667 142 -88 228 -88c93.333 0 173.833 33.833 241.5 101.5
s101.5 147.834 101.5 240.501c0 88 -30 164 -90 228zM49 28.998l90.001 90c-68.667 74 -103 160 -103 258c0 106 38.5 197 115.5 273s168.833 114 275.5 114c97.333 0 183.333 -33 258 -99l91 91l29 -26l-92 -92c70 -74 105 -161 105 -261c0 -106 -38.667 -197 -116 -273
s-169 -114 -275 -114c-100.667 0 -187.334 33.667 -260.001 101l-91 -91z" />
    <glyph glyph-name="Ugrave" unicode="&#xd9;" horiz-adv-x="660" 
d="M538 298l-0.00195312 456h48v-470c0 -33.333 -0.5 -58.666 -1.5 -75.999s-5.5 -38.333 -13.5 -63s-20 -47 -36 -67c-24.667 -28.667 -55.167 -50.5 -91.5 -65.5s-74.166 -22.5 -113.499 -22.5s-77.166 7.5 -113.499 22.5s-66.833 36.833 -91.5 65.5
c-16 20 -28 42.333 -36 67s-12.5 45.667 -13.5 63s-1.5 42.666 -1.5 75.999v470h48v-456c0 -30.667 0.5 -54.334 1.5 -71.001s4.5 -36.834 10.5 -60.501s15 -43.167 27 -58.5c17.333 -22.667 42 -40.5 74 -53.5s63.667 -19.5 95 -19.5s63 6.5 95 19.5s56.667 30.833 74 53.5
c12 15.333 21 34.833 27 58.5s9.5 43.834 10.5 60.501s1.5 40.334 1.5 71.001zM233.998 952l61 19l101 -147l-38 -17z" />
    <glyph glyph-name="Uacute" unicode="&#xda;" horiz-adv-x="660" 
d="M538 298l-0.00195312 456h48v-470c0 -33.333 -0.5 -58.666 -1.5 -75.999s-5.5 -38.333 -13.5 -63s-20 -47 -36 -67c-24.667 -28.667 -55.167 -50.5 -91.5 -65.5s-74.166 -22.5 -113.499 -22.5s-77.166 7.5 -113.499 22.5s-66.833 36.833 -91.5 65.5
c-16 20 -28 42.333 -36 67s-12.5 45.667 -13.5 63s-1.5 42.666 -1.5 75.999v470h48v-456c0 -30.667 0.5 -54.334 1.5 -71.001s4.5 -36.834 10.5 -60.501s15 -43.167 27 -58.5c17.333 -22.667 42 -40.5 74 -53.5s63.667 -19.5 95 -19.5s63 6.5 95 19.5s56.667 30.833 74 53.5
c12 15.333 21 34.833 27 58.5s9.5 43.834 10.5 60.501s1.5 40.334 1.5 71.001zM364.998 971l61 -19l-124 -145l-38 17z" />
    <glyph glyph-name="Ucircumflex" unicode="&#xdb;" horiz-adv-x="660" 
d="M538 298l-0.00195312 456h48v-470c0 -33.333 -0.5 -58.666 -1.5 -75.999s-5.5 -38.333 -13.5 -63s-20 -47 -36 -67c-24.667 -28.667 -55.167 -50.5 -91.5 -65.5s-74.166 -22.5 -113.499 -22.5s-77.166 7.5 -113.499 22.5s-66.833 36.833 -91.5 65.5
c-16 20 -28 42.333 -36 67s-12.5 45.667 -13.5 63s-1.5 42.666 -1.5 75.999v470h48v-456c0 -30.667 0.5 -54.334 1.5 -71.001s4.5 -36.834 10.5 -60.501s15 -43.167 27 -58.5c17.333 -22.667 42 -40.5 74 -53.5s63.667 -19.5 95 -19.5s63 6.5 95 19.5s56.667 30.833 74 53.5
c12 15.333 21 34.833 27 58.5s9.5 43.834 10.5 60.501s1.5 40.334 1.5 71.001zM191.998 845l138 106l138 -106l-38 -29l-100 77l-102 -77z" />
    <glyph glyph-name="Udieresis" unicode="&#xdc;" horiz-adv-x="660" 
d="M538 298l-0.00195312 456h48v-470c0 -33.333 -0.5 -58.666 -1.5 -75.999s-5.5 -38.333 -13.5 -63s-20 -47 -36 -67c-24.667 -28.667 -55.167 -50.5 -91.5 -65.5s-74.166 -22.5 -113.499 -22.5s-77.166 7.5 -113.499 22.5s-66.833 36.833 -91.5 65.5
c-16 20 -28 42.333 -36 67s-12.5 45.667 -13.5 63s-1.5 42.666 -1.5 75.999v470h48v-456c0 -30.667 0.5 -54.334 1.5 -71.001s4.5 -36.834 10.5 -60.501s15 -43.167 27 -58.5c17.333 -22.667 42 -40.5 74 -53.5s63.667 -19.5 95 -19.5s63 6.5 95 19.5s56.667 30.833 74 53.5
c12 15.333 21 34.833 27 58.5s9.5 43.834 10.5 60.501s1.5 40.334 1.5 71.001zM236.998 931c11.333 0 20.833 -3.83301 28.5 -11.5s11.5 -17.167 11.5 -28.5s-3.83301 -20.833 -11.5 -28.5s-17.167 -11.5 -28.5 -11.5s-20.833 3.83301 -28.5 11.5s-11.5 17.167 -11.5 28.5
s3.83301 20.833 11.5 28.5s17.167 11.5 28.5 11.5zM423.998 931c10.667 0 20 -3.83301 28 -11.5s12 -17.167 12 -28.5s-4 -20.833 -12 -28.5s-17.333 -11.5 -28 -11.5s-20 3.83301 -28 11.5s-12 17.167 -12 28.5s4 20.833 12 28.5s17.333 11.5 28 11.5z" />
    <glyph glyph-name="Yacute" unicode="&#xdd;" horiz-adv-x="559" 
d="M255 322l-251 432h53l222 -382l222 382h53l-251 -432v-322h-48v322zM329 971l61 -19l-124 -145l-38 17z" />
    <glyph glyph-name="Thorn" unicode="&#xde;" horiz-adv-x="472" 
d="M81 0v754.001h48v-160h85c36 0 66.833 -2.83301 92.5 -8.5s49.167 -17.5 70.5 -35.5c45.333 -38.667 68 -90.334 68 -155.001c0 -28 -5.5 -55.667 -16.5 -83s-26.5 -49.333 -46.5 -66c-36.667 -32 -92.667 -48 -168 -48h-85v-198h-48zM129 243.001h87
c57.333 0 101.333 13.667 132 41c32.667 30 49 67.667 49 113c0 53.333 -19 94 -57 122c-26 20 -70 30 -132 30h-79v-306z" />
    <glyph glyph-name="germandbls" unicode="&#xdf;" horiz-adv-x="534" 
d="M77 0v419.999h-49v42h49v188c0 60 11.333 103.667 34 131c30 38 74.333 57 133 57c46 0 84 -15.5 114 -46.5s45 -69.5 45 -115.5c0 -30.667 -7.83301 -58.5 -23.5 -83.5s-37.167 -42.5 -64.5 -52.5v-2c55.333 -15.333 100.333 -47.833 135 -97.5s52 -103.834 52 -162.501
c0 -74.667 -26.5 -138.834 -79.5 -192.501s-116.833 -84.167 -191.5 -91.5v42c63.333 9.33301 116.833 36.333 160.5 81s65.5 98.334 65.5 161.001c0 65.333 -21.167 119.333 -63.5 162s-96.5 67.334 -162.5 74.001v42c38 0.666992 68.667 12.334 92 35.001s35 52.667 35 90
c0 34 -11.5 61.667 -34.5 83s-51.833 32 -86.5 32c-45.333 0 -77.333 -16 -96 -48c-12.667 -22 -19 -60 -19 -114v-634h-45z" />
    <glyph glyph-name="agrave" unicode="&#xe0;" horiz-adv-x="560" 
d="M256 430c-51.333 0 -94 -19.668 -128 -59.001s-51 -85 -51 -137c0 -55.333 16.833 -102.833 50.5 -142.5s77.5 -59.5 131.5 -59.5c56.667 0 101.167 19.833 133.5 59.5s48.5 88.834 48.5 147.501c0 54.667 -17 100.167 -51 136.5s-78.667 54.5 -134 54.5zM483 461.999
l0.00195312 -461.998h-45v83h-2c-16.667 -28.667 -41.334 -51.334 -74.001 -68.001s-66.667 -25 -102 -25c-68.667 0 -123.834 23.333 -165.501 70s-62.5 104.667 -62.5 174c0 68.667 20.667 125.5 62 170.5s96 67.5 164 67.5c36 0 69.833 -7.83301 101.5 -23.5
s57.167 -37.834 76.5 -66.501h2v80h45zM184.002 695.001l61 19l101 -147l-38 -17z" />
    <glyph glyph-name="aacute" unicode="&#xe1;" horiz-adv-x="560" 
d="M256 430c-51.333 0 -94 -19.668 -128 -59.001s-51 -85 -51 -137c0 -55.333 16.833 -102.833 50.5 -142.5s77.5 -59.5 131.5 -59.5c56.667 0 101.167 19.833 133.5 59.5s48.5 88.834 48.5 147.501c0 54.667 -17 100.167 -51 136.5s-78.667 54.5 -134 54.5zM483 461.999
l0.00195312 -461.998h-45v83h-2c-16.667 -28.667 -41.334 -51.334 -74.001 -68.001s-66.667 -25 -102 -25c-68.667 0 -123.834 23.333 -165.501 70s-62.5 104.667 -62.5 174c0 68.667 20.667 125.5 62 170.5s96 67.5 164 67.5c36 0 69.833 -7.83301 101.5 -23.5
s57.167 -37.834 76.5 -66.501h2v80h45zM315.002 714.001l61 -19l-124 -145l-38 17z" />
    <glyph glyph-name="acircumflex" unicode="&#xe2;" horiz-adv-x="560" 
d="M256 430c-51.333 0 -94 -19.668 -128 -59.001s-51 -85 -51 -137c0 -55.333 16.833 -102.833 50.5 -142.5s77.5 -59.5 131.5 -59.5c56.667 0 101.167 19.833 133.5 59.5s48.5 88.834 48.5 147.501c0 54.667 -17 100.167 -51 136.5s-78.667 54.5 -134 54.5zM483 461.999
l0.00195312 -461.998h-45v83h-2c-16.667 -28.667 -41.334 -51.334 -74.001 -68.001s-66.667 -25 -102 -25c-68.667 0 -123.834 23.333 -165.501 70s-62.5 104.667 -62.5 174c0 68.667 20.667 125.5 62 170.5s96 67.5 164 67.5c36 0 69.833 -7.83301 101.5 -23.5
s57.167 -37.834 76.5 -66.501h2v80h45zM142.002 588.001l138 106l138 -106l-38 -29l-100 77l-102 -77z" />
    <glyph glyph-name="atilde" unicode="&#xe3;" horiz-adv-x="560" 
d="M256 430c-51.333 0 -94 -19.668 -128 -59.001s-51 -85 -51 -137c0 -55.333 16.833 -102.833 50.5 -142.5s77.5 -59.5 131.5 -59.5c56.667 0 101.167 19.833 133.5 59.5s48.5 88.834 48.5 147.501c0 54.667 -17 100.167 -51 136.5s-78.667 54.5 -134 54.5zM483 461.999
l0.00195312 -461.998h-45v83h-2c-16.667 -28.667 -41.334 -51.334 -74.001 -68.001s-66.667 -25 -102 -25c-68.667 0 -123.834 23.333 -165.501 70s-62.5 104.667 -62.5 174c0 68.667 20.667 125.5 62 170.5s96 67.5 164 67.5c36 0 69.833 -7.83301 101.5 -23.5
s57.167 -37.834 76.5 -66.501h2v80h45zM166.002 586.001l-29.999 22c7.33301 18 17.833 33.167 31.5 45.5s29.167 18.5 46.5 18.5c16 0 39.333 -6.33301 70 -19c34 -13.333 55 -20 63 -20c22.667 0 38.667 13.667 48 41l29 -22c-4.66699 -18 -14.667 -33.333 -30 -46
s-32.333 -19 -51 -19c-11.333 0 -33 6.66699 -65 20c-30.667 13.333 -53.334 20 -68.001 20c-20 0 -34.667 -13.667 -44 -41z" />
    <glyph glyph-name="adieresis" unicode="&#xe4;" horiz-adv-x="560" 
d="M256 430c-51.333 0 -94 -19.668 -128 -59.001s-51 -85 -51 -137c0 -55.333 16.833 -102.833 50.5 -142.5s77.5 -59.5 131.5 -59.5c56.667 0 101.167 19.833 133.5 59.5s48.5 88.834 48.5 147.501c0 54.667 -17 100.167 -51 136.5s-78.667 54.5 -134 54.5zM483 461.999
l0.00195312 -461.998h-45v83h-2c-16.667 -28.667 -41.334 -51.334 -74.001 -68.001s-66.667 -25 -102 -25c-68.667 0 -123.834 23.333 -165.501 70s-62.5 104.667 -62.5 174c0 68.667 20.667 125.5 62 170.5s96 67.5 164 67.5c36 0 69.833 -7.83301 101.5 -23.5
s57.167 -37.834 76.5 -66.501h2v80h45zM187.002 674.001c11.333 0 20.833 -4 28.5 -12s11.5 -17.333 11.5 -28s-3.83301 -20 -11.5 -28s-17.167 -12 -28.5 -12s-20.833 4 -28.5 12s-11.5 17.333 -11.5 28s3.83301 20 11.5 28s17.167 12 28.5 12zM374.002 674.001
c10.667 0 20 -4 28 -12s12 -17.333 12 -28s-4 -20 -12 -28s-17.333 -12 -28 -12s-20 4 -28 12s-12 17.333 -12 28s4 20 12 28s17.333 12 28 12z" />
    <glyph glyph-name="aring" unicode="&#xe5;" horiz-adv-x="560" 
d="M256 430c-51.333 0 -94 -19.668 -128 -59.001s-51 -85 -51 -137c0 -55.333 16.833 -102.833 50.5 -142.5s77.5 -59.5 131.5 -59.5c56.667 0 101.167 19.833 133.5 59.5s48.5 88.834 48.5 147.501c0 54.667 -17 100.167 -51 136.5s-78.667 54.5 -134 54.5zM483 461.999
l0.00195312 -461.998h-45v83h-2c-16.667 -28.667 -41.334 -51.334 -74.001 -68.001s-66.667 -25 -102 -25c-68.667 0 -123.834 23.333 -165.501 70s-62.5 104.667 -62.5 174c0 68.667 20.667 125.5 62 170.5s96 67.5 164 67.5c36 0 69.833 -7.83301 101.5 -23.5
s57.167 -37.834 76.5 -66.501h2v80h45zM280.002 714.001c24 0 44.5 -8.5 61.5 -25.5s25.5 -37.5 25.5 -61.5s-8.5 -44.5 -25.5 -61.5s-37.5 -25.5 -61.5 -25.5s-44.5 8.5 -61.5 25.5s-25.5 37.5 -25.5 61.5s8.5 44.5 25.5 61.5s37.5 25.5 61.5 25.5zM280.002 674.001
c-13.333 0 -24.5 -4.66699 -33.5 -14s-13.5 -20.333 -13.5 -33s4.5 -23.667 13.5 -33s20.167 -14 33.5 -14s24.5 4.66699 33.5 14s13.5 20.333 13.5 33s-4.5 23.667 -13.5 33s-20.167 14 -33.5 14z" />
    <glyph glyph-name="ae" unicode="&#xe6;" horiz-adv-x="849" 
d="M416 268l356.001 0.000976562c-5.33301 43.333 -25 81.166 -59 113.499s-73 48.5 -117 48.5c-46.667 0 -87.334 -16 -122.001 -48s-54 -70 -58 -114zM222.001 237.001c-24.667 0 -48 -2.66895 -70 -8.00195s-41.833 -16.166 -59.5 -32.499s-26.5 -36.833 -26.5 -61.5
c0 -25.333 8.33301 -46.166 25 -62.499s35.5 -27.166 56.5 -32.499s44.167 -8 69.5 -8c37.333 0 72.333 8.66699 105 26s49 43 49 77c0 35.333 -15 61.166 -45 77.499s-64.667 24.5 -104 24.5zM763.001 135.999l38.9951 -26c-24 -37.333 -53.667 -66.666 -89 -87.999
s-74.333 -32 -117 -32c-40 0 -77.667 10.167 -113 30.5s-60.666 48.166 -75.999 83.499h-2c-10 -38 -33.5 -66.5 -70.5 -85.5s-77.5 -28.5 -121.5 -28.5c-49.333 0 -93.666 12.333 -132.999 37s-59 60.334 -59 107.001c0 48 20.667 84.167 62 108.5
s87.666 36.5 138.999 36.5c61.333 0 111 -16.333 149 -49c0.666992 58.667 -12.333 106.667 -39 144s-68.334 56 -125.001 56c-44 0 -95.667 -14 -155 -42v46c50 25.333 104.667 38 164 38c42.667 0 79.834 -11.167 111.501 -33.5s54.834 -53.833 69.501 -94.5
c16.667 38 43 68.833 79 92.5s75 35.5 117 35.5c67.333 0 121.333 -23.833 162 -71.5s61.334 -105.834 62.001 -174.501h-401c1.33301 -54 18.833 -99.833 52.5 -137.5s76.834 -56.5 129.501 -56.5c34.667 0 66.334 9.5 95.001 28.5s52 44.167 70 75.5z" />
    <glyph glyph-name="ccedilla" unicode="&#xe7;" horiz-adv-x="477" 
d="M431 415l-0.000976562 -60c-46 50 -100.333 75 -163 75c-53.333 0 -98.5 -19.667 -135.5 -59s-55.5 -85.666 -55.5 -138.999s18.333 -100 55 -140s81.667 -60 135 -60c68 0 124.667 27.667 170 83v-61c-48.667 -42.667 -104.667 -64 -168 -64
c-68 0 -124.5 23.333 -169.5 70s-67.5 104 -67.5 172c0 67.333 22.833 124.166 68.5 170.499s102.167 69.5 169.5 69.5c62.667 0 116.334 -19 161.001 -57zM312.999 -42l-111 -141l-38 19l93 144z" />
    <glyph glyph-name="egrave" unicode="&#xe8;" horiz-adv-x="510" 
d="M478 227l-400.998 -0.000976562c-1.33301 -58 15.5 -105 50.5 -141s79.833 -54 134.5 -54c34.667 0 66.167 9.5 94.5 28.5s51.166 44.5 68.499 76.5l38 -22c-44 -83.333 -113 -125 -207 -125c-66.667 0 -120.667 23.5 -162 70.5s-62 104.167 -62 171.5
c0 66.667 20.833 123.334 62.5 170.001s95.5 70 161.5 70c68 0 122.167 -23.667 162.5 -71s60.166 -105.333 59.499 -174zM77.002 268.999h356.001c-6 44 -25.333 81.833 -58 113.5s-72 47.5 -118 47.5c-46.667 0 -87.334 -15.833 -122.001 -47.5s-54 -69.5 -58 -113.5z
M159.003 694.999l61 19l101 -147l-38 -17z" />
    <glyph glyph-name="eacute" unicode="&#xe9;" horiz-adv-x="510" 
d="M478 227l-400.998 -0.000976562c-1.33301 -58 15.5 -105 50.5 -141s79.833 -54 134.5 -54c34.667 0 66.167 9.5 94.5 28.5s51.166 44.5 68.499 76.5l38 -22c-44 -83.333 -113 -125 -207 -125c-66.667 0 -120.667 23.5 -162 70.5s-62 104.167 -62 171.5
c0 66.667 20.833 123.334 62.5 170.001s95.5 70 161.5 70c68 0 122.167 -23.667 162.5 -71s60.166 -105.333 59.499 -174zM77.002 268.999h356.001c-6 44 -25.333 81.833 -58 113.5s-72 47.5 -118 47.5c-46.667 0 -87.334 -15.833 -122.001 -47.5s-54 -69.5 -58 -113.5z
M290.003 713.999l61 -19l-124 -145l-38 17z" />
    <glyph glyph-name="ecircumflex" unicode="&#xea;" horiz-adv-x="510" 
d="M478 227l-400.998 -0.000976562c-1.33301 -58 15.5 -105 50.5 -141s79.833 -54 134.5 -54c34.667 0 66.167 9.5 94.5 28.5s51.166 44.5 68.499 76.5l38 -22c-44 -83.333 -113 -125 -207 -125c-66.667 0 -120.667 23.5 -162 70.5s-62 104.167 -62 171.5
c0 66.667 20.833 123.334 62.5 170.001s95.5 70 161.5 70c68 0 122.167 -23.667 162.5 -71s60.166 -105.333 59.499 -174zM77.002 268.999h356.001c-6 44 -25.333 81.833 -58 113.5s-72 47.5 -118 47.5c-46.667 0 -87.334 -15.833 -122.001 -47.5s-54 -69.5 -58 -113.5z
M117.003 587.999l138 106l138 -106l-38 -29l-100 77l-102 -77z" />
    <glyph glyph-name="edieresis" unicode="&#xeb;" horiz-adv-x="510" 
d="M478 227l-400.998 -0.000976562c-1.33301 -58 15.5 -105 50.5 -141s79.833 -54 134.5 -54c34.667 0 66.167 9.5 94.5 28.5s51.166 44.5 68.499 76.5l38 -22c-44 -83.333 -113 -125 -207 -125c-66.667 0 -120.667 23.5 -162 70.5s-62 104.167 -62 171.5
c0 66.667 20.833 123.334 62.5 170.001s95.5 70 161.5 70c68 0 122.167 -23.667 162.5 -71s60.166 -105.333 59.499 -174zM77.002 268.999h356.001c-6 44 -25.333 81.833 -58 113.5s-72 47.5 -118 47.5c-46.667 0 -87.334 -15.833 -122.001 -47.5s-54 -69.5 -58 -113.5z
M162.003 673.999c10.667 0 20 -4 28 -12s12 -17.333 12 -28s-4 -20 -12 -28s-17.333 -12 -28 -12s-20 4 -28 12s-12 17.333 -12 28s4 20 12 28s17.333 12 28 12zM349.003 673.999c11.333 0 20.833 -4 28.5 -12s11.5 -17.333 11.5 -28s-3.83301 -20 -11.5 -28
s-17.167 -12 -28.5 -12s-20.833 4 -28.5 12s-11.5 17.333 -11.5 28s3.83301 20 11.5 28s17.167 12 28.5 12z" />
    <glyph glyph-name="igrave" unicode="&#xec;" horiz-adv-x="234" 
d="M139 462v-462h-45v462h45zM21 695l61 19l101 -147l-38 -17z" />
    <glyph glyph-name="iacute" unicode="&#xed;" horiz-adv-x="234" 
d="M139 462v-462h-45v462h45zM152 714l61 -19l-124 -145l-38 17z" />
    <glyph glyph-name="icircumflex" unicode="&#xee;" horiz-adv-x="234" 
d="M139 462v-462h-45v462h45zM-21 588l138 106l138 -106l-38 -29l-100 77l-102 -77z" />
    <glyph glyph-name="idieresis" unicode="&#xef;" horiz-adv-x="234" 
d="M139 462v-462h-45v462h45zM24 674c10.667 0 20 -4 28 -12s12 -17.333 12 -28s-4 -20 -12 -28s-17.333 -12 -28 -12s-20 4 -28 12s-12 17.333 -12 28s4 20 12 28s17.333 12 28 12zM211 674c11.333 0 20.833 -4 28.5 -12s11.5 -17.333 11.5 -28s-3.83301 -20 -11.5 -28
s-17.167 -12 -28.5 -12s-20.833 4 -28.5 12s-11.5 17.333 -11.5 28s3.83301 20 11.5 28s17.167 12 28.5 12z" />
    <glyph glyph-name="eth" unicode="&#xf0;" horiz-adv-x="547" 
d="M89 798l32.002 30.0029c49.333 -28.667 95.666 -60.334 138.999 -95.001l155 87l25 -33l-147 -82c68.667 -60.667 122.834 -128.834 162.501 -204.501s59.5 -155.834 59.5 -240.501c0 -88.667 -23.833 -155.834 -71.5 -201.501s-104.834 -68.5 -171.501 -68.5
s-123.334 23.667 -170.001 71s-70 104 -70 170c0 65.333 23.5 122 70.5 170s104.5 72 172.5 72c62.667 0 119 -23.333 169 -70c-18.667 54 -42 102 -70 144s-68.333 87 -121 135l-146 -82l-25 34l137 75c-32 26.667 -75.333 56.334 -130 89.001zM269.002 430.003
c-54 0 -99.502 -19.668 -136.502 -59.001s-55.5 -86.333 -55.5 -141c0 -53.333 18.5 -99.666 55.5 -138.999s82.5 -59 136.5 -59c56.667 0 104.334 19 143.001 57s58 85 58 141c0 56.667 -19.167 104.167 -57.5 142.5s-86.166 57.5 -143.499 57.5z" />
    <glyph glyph-name="ntilde" unicode="&#xf1;" horiz-adv-x="490" 
d="M122 462v-71.999h2c13.333 26 32 46.167 56 60.5s51 21.5 81 21.5c56.667 0 96.167 -16.167 118.5 -48.5s33.5 -80.5 33.5 -144.5v-279h-45v279c0 24 -1.16699 43.833 -3.5 59.5s-7 31.167 -14 46.5s-18.333 26.666 -34 33.999s-35.5 11 -59.5 11
c-90 0 -135 -67.333 -135 -202v-228h-45v462h45zM131 586.001l-29.999 22c7.33301 18 17.833 33.167 31.5 45.5s29.167 18.5 46.5 18.5c16 0 39.333 -6.33301 70 -19c34 -13.333 55 -20 63 -20c22.667 0 38.667 13.667 48 41l29 -22c-4.66699 -18 -14.667 -33.333 -30 -46
s-32.333 -19 -51 -19c-11.333 0 -33 6.66699 -65 20c-30.667 13.333 -53.334 20 -68.001 20c-20 0 -34.667 -13.667 -44 -41z" />
    <glyph glyph-name="ograve" unicode="&#xf2;" horiz-adv-x="547" 
d="M272 472c68 0 125.499 -23.167 172.499 -69.5s70.5 -103.5 70.5 -171.5s-23.5 -125.167 -70.5 -171.5s-104.5 -69.5 -172.5 -69.5c-66 0 -122.5 23.5 -169.5 70.5s-70.5 103.5 -70.5 169.5c0 66.667 23.333 123.667 70 171s103.334 71 170.001 71zM268.999 430
c-54 0 -99.502 -19.668 -136.502 -59.001s-55.5 -86.333 -55.5 -141c0 -53.333 18.5 -99.666 55.5 -138.999s82.5 -59 136.5 -59c56.667 0 104.334 19 143.001 57s58 85 58 141c0 56.667 -19.167 104.167 -57.5 142.5s-86.166 57.5 -143.499 57.5zM176.997 694.999l61 19
l101 -147l-38 -17z" />
    <glyph glyph-name="oacute" unicode="&#xf3;" horiz-adv-x="547" 
d="M272 472c68 0 125.499 -23.167 172.499 -69.5s70.5 -103.5 70.5 -171.5s-23.5 -125.167 -70.5 -171.5s-104.5 -69.5 -172.5 -69.5c-66 0 -122.5 23.5 -169.5 70.5s-70.5 103.5 -70.5 169.5c0 66.667 23.333 123.667 70 171s103.334 71 170.001 71zM268.999 430
c-54 0 -99.502 -19.668 -136.502 -59.001s-55.5 -86.333 -55.5 -141c0 -53.333 18.5 -99.666 55.5 -138.999s82.5 -59 136.5 -59c56.667 0 104.334 19 143.001 57s58 85 58 141c0 56.667 -19.167 104.167 -57.5 142.5s-86.166 57.5 -143.499 57.5zM307.997 713.999l61 -19
l-124 -145l-38 17z" />
    <glyph glyph-name="ocircumflex" unicode="&#xf4;" horiz-adv-x="547" 
d="M272 472c68 0 125.499 -23.167 172.499 -69.5s70.5 -103.5 70.5 -171.5s-23.5 -125.167 -70.5 -171.5s-104.5 -69.5 -172.5 -69.5c-66 0 -122.5 23.5 -169.5 70.5s-70.5 103.5 -70.5 169.5c0 66.667 23.333 123.667 70 171s103.334 71 170.001 71zM268.999 430
c-54 0 -99.502 -19.668 -136.502 -59.001s-55.5 -86.333 -55.5 -141c0 -53.333 18.5 -99.666 55.5 -138.999s82.5 -59 136.5 -59c56.667 0 104.334 19 143.001 57s58 85 58 141c0 56.667 -19.167 104.167 -57.5 142.5s-86.166 57.5 -143.499 57.5zM135.997 587.999l138 106
l138 -106l-38 -29l-100 77l-102 -77z" />
    <glyph glyph-name="otilde" unicode="&#xf5;" horiz-adv-x="547" 
d="M272 472c68 0 125.499 -23.167 172.499 -69.5s70.5 -103.5 70.5 -171.5s-23.5 -125.167 -70.5 -171.5s-104.5 -69.5 -172.5 -69.5c-66 0 -122.5 23.5 -169.5 70.5s-70.5 103.5 -70.5 169.5c0 66.667 23.333 123.667 70 171s103.334 71 170.001 71zM268.999 430
c-54 0 -99.502 -19.668 -136.502 -59.001s-55.5 -86.333 -55.5 -141c0 -53.333 18.5 -99.666 55.5 -138.999s82.5 -59 136.5 -59c56.667 0 104.334 19 143.001 57s58 85 58 141c0 56.667 -19.167 104.167 -57.5 142.5s-86.166 57.5 -143.499 57.5zM158.997 585.999
l-29.999 22c7.33301 18 17.833 33.167 31.5 45.5s29.167 18.5 46.5 18.5c16 0 39.333 -6.33301 70 -19c34 -13.333 55 -20 63 -20c22.667 0 38.667 13.667 48 41l29 -22c-4.66699 -18 -14.667 -33.333 -30 -46s-32.333 -19 -51 -19c-11.333 0 -33 6.66699 -65 20
c-30.667 13.333 -53.334 20 -68.001 20c-20 0 -34.667 -13.667 -44 -41z" />
    <glyph glyph-name="odieresis" unicode="&#xf6;" horiz-adv-x="547" 
d="M272 472c68 0 125.499 -23.167 172.499 -69.5s70.5 -103.5 70.5 -171.5s-23.5 -125.167 -70.5 -171.5s-104.5 -69.5 -172.5 -69.5c-66 0 -122.5 23.5 -169.5 70.5s-70.5 103.5 -70.5 169.5c0 66.667 23.333 123.667 70 171s103.334 71 170.001 71zM268.999 430
c-54 0 -99.502 -19.668 -136.502 -59.001s-55.5 -86.333 -55.5 -141c0 -53.333 18.5 -99.666 55.5 -138.999s82.5 -59 136.5 -59c56.667 0 104.334 19 143.001 57s58 85 58 141c0 56.667 -19.167 104.167 -57.5 142.5s-86.166 57.5 -143.499 57.5zM179.997 673.999
c10.667 0 20 -4 28 -12s12 -17.333 12 -28s-4 -20 -12 -28s-17.333 -12 -28 -12s-20 4 -28 12s-12 17.333 -12 28s4 20 12 28s17.333 12 28 12zM366.997 673.999c11.333 0 20.833 -4 28.5 -12s11.5 -17.333 11.5 -28s-3.83301 -20 -11.5 -28s-17.167 -12 -28.5 -12
s-20.833 4 -28.5 12s-11.5 17.333 -11.5 28s3.83301 20 11.5 28s17.167 12 28.5 12z" />
    <glyph glyph-name="divide" unicode="&#xf7;" 
d="M54 232v48h512v-48h-512zM310 82c11.333 0 21 -4 29 -12s12 -17.667 12 -29s-4 -21 -12 -29s-17.667 -12 -29 -12s-21 4 -29 12s-12 17.667 -12 29s4 21 12 29s17.667 12 29 12zM310 512c11.333 0 21 -4 29 -12s12 -17.667 12 -29s-4 -21 -12 -29s-17.667 -12 -29 -12
s-21 4 -29 12s-12 17.667 -12 29s4 21 12 29s17.667 12 29 12z" />
    <glyph glyph-name="oslash" unicode="&#xf8;" horiz-adv-x="547" 
d="M119 108l278.001 278c-36.667 29.333 -79.334 44 -128.001 44c-54 0 -99.5 -19.667 -136.5 -59s-55.5 -86.333 -55.5 -141c0 -46 14 -86.667 42 -122zM425.001 357l-280 -276.999c35.333 -32 76.666 -48 123.999 -48c56.667 0 104.334 19 143.001 57s58 85 58 141
c0 49.333 -15 91.666 -45 126.999zM28.001 17.001l59.999 60.001c-37.333 43.333 -56 94.333 -56 153c0 66.667 23.333 123.667 70 171s103.334 71 170.001 71c60 0 112 -18.333 156 -55l63 63l28 -29l-62 -62c38.667 -42.667 58 -95.334 58 -158.001
c0 -68 -23.5 -125.167 -70.5 -171.5s-104.5 -69.5 -172.5 -69.5c-60.667 0 -113 20 -157 60l-60 -60z" />
    <glyph glyph-name="ugrave" unicode="&#xf9;" horiz-adv-x="472" 
d="M357 462h45.002v-277c0 -22 -0.166992 -38.167 -0.5 -48.5s-2.83301 -24 -7.5 -41s-11.334 -31.5 -20.001 -43.5c-31.333 -41.333 -77.333 -62 -138 -62s-106.667 20.667 -138 62c-8.66699 12 -15.334 26.5 -20.001 43.5s-7.16699 30.667 -7.5 41s-0.5 26.5 -0.5 48.5
v277h45v-261c0 -26 1.16699 -47.667 3.5 -65s7.33301 -34.666 15 -51.999s20 -30.333 37 -39s38.833 -13 65.5 -13s48.5 4.33301 65.5 13s29.333 21.667 37 39s12.667 34.666 15 51.999s3.5 39 3.5 65v261zM130.002 695l61 19l101 -147l-38 -17z" />
    <glyph glyph-name="uacute" unicode="&#xfa;" horiz-adv-x="472" 
d="M357 462h45.002v-277c0 -22 -0.166992 -38.167 -0.5 -48.5s-2.83301 -24 -7.5 -41s-11.334 -31.5 -20.001 -43.5c-31.333 -41.333 -77.333 -62 -138 -62s-106.667 20.667 -138 62c-8.66699 12 -15.334 26.5 -20.001 43.5s-7.16699 30.667 -7.5 41s-0.5 26.5 -0.5 48.5
v277h45v-261c0 -26 1.16699 -47.667 3.5 -65s7.33301 -34.666 15 -51.999s20 -30.333 37 -39s38.833 -13 65.5 -13s48.5 4.33301 65.5 13s29.333 21.667 37 39s12.667 34.666 15 51.999s3.5 39 3.5 65v261zM281.002 714l61 -19l-124 -145l-38 17z" />
    <glyph glyph-name="ucircumflex" unicode="&#xfb;" horiz-adv-x="472" 
d="M357 462h45.002v-277c0 -22 -0.166992 -38.167 -0.5 -48.5s-2.83301 -24 -7.5 -41s-11.334 -31.5 -20.001 -43.5c-31.333 -41.333 -77.333 -62 -138 -62s-106.667 20.667 -138 62c-8.66699 12 -15.334 26.5 -20.001 43.5s-7.16699 30.667 -7.5 41s-0.5 26.5 -0.5 48.5
v277h45v-261c0 -26 1.16699 -47.667 3.5 -65s7.33301 -34.666 15 -51.999s20 -30.333 37 -39s38.833 -13 65.5 -13s48.5 4.33301 65.5 13s29.333 21.667 37 39s12.667 34.666 15 51.999s3.5 39 3.5 65v261zM98.002 588l138 106l138 -106l-38 -29l-100 77l-102 -77z" />
    <glyph glyph-name="udieresis" unicode="&#xfc;" horiz-adv-x="472" 
d="M357 462h45.002v-277c0 -22 -0.166992 -38.167 -0.5 -48.5s-2.83301 -24 -7.5 -41s-11.334 -31.5 -20.001 -43.5c-31.333 -41.333 -77.333 -62 -138 -62s-106.667 20.667 -138 62c-8.66699 12 -15.334 26.5 -20.001 43.5s-7.16699 30.667 -7.5 41s-0.5 26.5 -0.5 48.5
v277h45v-261c0 -26 1.16699 -47.667 3.5 -65s7.33301 -34.666 15 -51.999s20 -30.333 37 -39s38.833 -13 65.5 -13s48.5 4.33301 65.5 13s29.333 21.667 37 39s12.667 34.666 15 51.999s3.5 39 3.5 65v261zM143.002 674c11.333 0 20.833 -4 28.5 -12s11.5 -17.333 11.5 -28
s-3.83301 -20 -11.5 -28s-17.167 -12 -28.5 -12s-20.833 4 -28.5 12s-11.5 17.333 -11.5 28s3.83301 20 11.5 28s17.167 12 28.5 12zM330.002 674c10.667 0 20 -4 28 -12s12 -17.333 12 -28s-4 -20 -12 -28s-17.333 -12 -28 -12s-20 4 -28 12s-12 17.333 -12 28s4 20 12 28
s17.333 12 28 12z" />
    <glyph glyph-name="yacute" unicode="&#xfd;" horiz-adv-x="460" 
d="M215 -8l-222 470h47l197 -418l177 418h46l-310 -732h-46zM280 714l61 -19l-124 -145l-38 17z" />
    <glyph glyph-name="thorn" unicode="&#xfe;" horiz-adv-x="560" 
d="M301 430c-56.667 0 -101.168 -20.165 -133.501 -60.498s-48.5 -89.833 -48.5 -148.5c0 -54.667 17 -99.834 51 -135.501s78.333 -53.5 133 -53.5c52.667 0 95.834 19 129.501 57s50.5 83.667 50.5 137c0 55.333 -16.667 103.166 -50 143.499s-77.333 60.5 -132 60.5z
M121.999 80.002v-350.001h-45v1095h45v-446h2c16.667 28.667 41.334 51.334 74.001 68.001s66.667 25 102 25c68.667 0 123.834 -23.5 165.501 -70.5s62.5 -105.167 62.5 -174.5c0 -68.667 -20.667 -125.334 -62 -170.001s-96 -67 -164 -67
c-36.667 0 -70.834 7.83301 -102.501 23.5s-56.834 37.834 -75.501 66.501h-2z" />
    <glyph glyph-name="ydieresis" unicode="&#xff;" horiz-adv-x="460" 
d="M215 -8l-222 470h47l197 -418l177 418h46l-310 -732h-46zM142 674c10.667 0 20 -4 28 -12s12 -17.333 12 -28s-4 -20 -12 -28s-17.333 -12 -28 -12s-20 4 -28 12s-12 17.333 -12 28s4 20 12 28s17.333 12 28 12zM329 674c11.333 0 20.833 -4 28.5 -12
s11.5 -17.333 11.5 -28s-3.83301 -20 -11.5 -28s-17.167 -12 -28.5 -12s-20.833 4 -28.5 12s-11.5 17.333 -11.5 28s3.83301 20 11.5 28s17.167 12 28.5 12z" />
    <glyph glyph-name="dotlessi" unicode="&#x131;" horiz-adv-x="234" 
d="M139 462v-462h-45v462h45z" />
    <glyph glyph-name="Lslash" unicode="&#x141;" horiz-adv-x="327" 
d="M81 0v354l-81 -57v49l81 57v351h48v-318l128 89v-49l-128 -89v-342h192v-45h-240z" />
    <glyph glyph-name="lslash" unicode="&#x142;" horiz-adv-x="229" 
d="M92 0v391l-75 -54v45l75 54v389h45v-357l75 53v-45l-75 -53v-423h-45z" />
    <glyph glyph-name="OE" unicode="&#x152;" horiz-adv-x="1193" 
d="M767 0l-0.00195312 194h-2c-30 -62.667 -76.167 -112.334 -138.5 -149.001s-129.166 -55 -200.499 -55c-49.333 0 -97.666 9.66699 -144.999 29s-89 46 -125 80c-80 76 -120 168.667 -120 278c0 106.667 38.833 197.834 116.5 273.501s170.167 113.5 277.5 113.5
c70 0 135.667 -18.833 197 -56.5s107.333 -87.5 138 -149.5h2v196h360v-45h-312v-274h305v-45h-305v-345h312v-45h-360zM428.998 719c-92.667 0 -173.332 -33.8311 -241.999 -101.498s-103 -147.834 -103 -240.501c0 -96.667 35 -178 105 -244
c31.333 -30.667 67.833 -54.667 109.5 -72s84.5 -26 128.5 -26c45.333 0 89.666 9.33301 132.999 28s81 44.667 113 78c62 65.333 93 144 93 236c0 93.333 -33 173.666 -99 240.999s-145.333 101 -238 101z" />
    <glyph glyph-name="oe" unicode="&#x153;" horiz-adv-x="945" 
d="M913 227h-399c-3.33301 -53.333 13 -99.166 49 -137.499s80.333 -57.5 133 -57.5c74.667 0 129 35.667 163 107l38 -23c-20 -40 -47.833 -71 -83.5 -93s-76.167 -33 -121.5 -33c-44 0 -84.5 12.5 -121.5 37.5s-63.5 57.833 -79.5 98.5
c-19.333 -40.667 -48.833 -73.5 -88.5 -98.5s-82.167 -37.5 -127.5 -37.5c-68 0 -125.5 23.167 -172.5 69.5s-70.5 103.166 -70.5 170.499c0 68 23.833 125.333 71.5 172s105.5 70 173.5 70c45.333 0 87.833 -12.167 127.5 -36.5s68.5 -56.833 86.5 -97.5
c16 42 42 74.833 78 98.5s76.667 35.5 122 35.5c69.333 0 123.833 -23.333 163.5 -70s59.167 -105 58.5 -175zM514 269h354c-6 44 -25.333 81.833 -58 113.5s-72 47.5 -118 47.5c-46.667 0 -87 -15.833 -121 -47.5s-53 -69.5 -57 -113.5zM276 430
c-57.333 0 -104.832 -19.501 -142.499 -58.501s-56.5 -87.167 -56.5 -144.5c0 -52 19.167 -97.5 57.5 -136.5s83.833 -58.5 136.5 -58.5c55.333 0 102.166 19.333 140.499 58s57.5 85.334 57.5 140.001c0 54 -18.667 100.833 -56 140.5s-83 59.5 -137 59.5z" />
    <glyph glyph-name="Scaron" unicode="&#x160;" horiz-adv-x="544" 
d="M464 658l-34.001 -28.001c-37.333 59.333 -88.333 89 -153 89c-40 0 -73.667 -14 -101 -42s-41 -62 -41 -102c0 -18.667 3.66699 -35.334 11 -50.001s19.333 -28.167 36 -40.5s30 -21.166 40 -26.499s26.333 -13.333 49 -24l144 -75c57.333 -36 86 -86 86 -150
c0 -61.333 -23.667 -113.166 -71 -155.499s-102.333 -63.5 -165 -63.5c-51.333 0 -96.666 14.667 -135.999 44s-68 68.666 -86 117.999l42 19c36 -90.667 96.667 -136 182 -136c50 0 93.5 17.333 130.5 52s55.5 76.667 55.5 126c0 15.333 -3.16699 29.833 -9.5 43.5
s-13 24.667 -20 33s-18.5 17.833 -34.5 28.5s-27.5 17.834 -34.5 21.501s-20.167 10.167 -39.5 19.5l-14 7l-136 72c-52 32 -78 77 -78 135c0 56 18 101.833 54 137.5s82.333 53.5 139 53.5c38 0 73.667 -9.5 107 -28.5s59 -44.833 77 -77.5zM419.999 922.999l-138 -107
l-138 107l38 28l100 -76l102 76z" />
    <glyph glyph-name="scaron" unicode="&#x161;" horiz-adv-x="375" 
d="M310 398l-39.001 -20c-16 34.667 -43 52 -81 52c-20 0 -38.167 -7.16699 -54.5 -21.5s-24.5 -31.166 -24.5 -50.499c0 -20 7.66699 -36.333 23 -49s34 -22.834 56 -30.501s44.167 -16 66.5 -25s41.166 -23.5 56.499 -43.5s23 -45.333 23 -76
c0 -42 -14.333 -76.5 -43 -103.5s-64 -40.5 -106 -40.5c-38.667 0 -72.5 11 -101.5 33s-48.167 51.667 -57.5 89l44 14c19.333 -62.667 57.666 -94 114.999 -94c28.667 0 53.167 10 73.5 30s30.5 44.667 30.5 74c0 25.333 -7.66699 44.333 -23 57s-37.666 24 -66.999 34
c-21.333 8 -37.666 14.5 -48.999 19.5s-24.833 12.667 -40.5 23s-27.167 22.5 -34.5 36.5s-11 30.333 -11 49c0 34 12.333 62 37 84s54.334 33 89.001 33c24 0 47.167 -7 69.5 -21s38.5 -31.667 48.5 -53zM325.999 666l-138 -107l-138 107l38 28l100 -76l102 76z" />
    <glyph glyph-name="Ydieresis" unicode="&#x178;" horiz-adv-x="559" 
d="M255 322l-251 432h53l222 -382l222 382h53l-251 -432v-322h-48v322zM198 931c10.667 0 20 -3.83301 28 -11.5s12 -17.167 12 -28.5s-4 -20.833 -12 -28.5s-17.333 -11.5 -28 -11.5s-20 3.83301 -28 11.5s-12 17.167 -12 28.5s4 20.833 12 28.5s17.333 11.5 28 11.5z
M385 931c11.333 0 20.833 -3.83301 28.5 -11.5s11.5 -17.167 11.5 -28.5s-3.83301 -20.833 -11.5 -28.5s-17.167 -11.5 -28.5 -11.5s-20.833 3.83301 -28.5 11.5s-11.5 17.167 -11.5 28.5s3.83301 20.833 11.5 28.5s17.167 11.5 28.5 11.5z" />
    <glyph glyph-name="Zcaron" unicode="&#x17d;" horiz-adv-x="568" 
d="M96 45h447v-45h-531l460 709h-416v45h500zM434 923l-138 -107l-138 107l38 28l100 -76l102 76z" />
    <glyph glyph-name="zcaron" unicode="&#x17e;" horiz-adv-x="480" 
d="M98 42h375v-42h-470l378 420h-317v42h411zM403 666l-138 -107l-138 107l38 28l100 -76l102 76z" />
    <glyph glyph-name="florin" unicode="&#x192;" 
d="M369 486h115.999l-9 -45h-115l-72 -380l-4.5 -26l-5 -28c-1 -5.33301 -3 -14.166 -6 -26.499s-5.66699 -21.333 -8 -27l-10 -24.5c-4.33301 -10.667 -8.66602 -18.5 -12.999 -23.5l-16 -18c-6.33301 -7 -13.166 -12.167 -20.499 -15.5s-15.833 -6.16602 -25.5 -8.49902
s-19.834 -3.5 -30.501 -3.5c-24 0 -50.667 5.66699 -80 17l9 42c24 -9.33301 46.333 -14 67 -14c29.333 0 49 8.33301 59 25c12 19.333 22.333 52.666 31 99.999l79 411h-69l9 45h68l40 214c9.33301 46 19 76.667 29 92c20.667 30.667 52 46 94 46c21.333 0 43 -5 65 -15
l-9 -41c-16.667 7.33301 -34 11 -52 11c-10.667 0 -20 -1.16699 -28 -3.5s-14.833 -6.33301 -20.5 -12s-10.5 -10.834 -14.5 -15.501s-7.33301 -11.834 -10 -21.501s-4.66699 -17.167 -6 -22.5s-3 -14.166 -5 -26.499l-4 -24.5z" />
    <glyph glyph-name="circumflex" unicode="&#x2c6;" horiz-adv-x="426" 
d="M75 588l138 106l138 -106l-38 -29l-100 77l-102 -77z" />
    <glyph glyph-name="caron" unicode="&#x2c7;" horiz-adv-x="426" 
d="M351 666l-138 -107l-138 107l38 28l100 -76l102 76z" />
    <glyph glyph-name="breve" unicode="&#x2d8;" horiz-adv-x="434" 
d="M75 674h43.9971c12.667 -40.667 45.334 -61 98.001 -61s85.334 20.333 98.001 61h43c-4 -33.333 -19.667 -59.333 -47 -78s-58.666 -28 -93.999 -28s-66.833 9.33301 -94.5 28s-43.5 44.667 -47.5 78z" />
    <glyph glyph-name="dotaccent" unicode="&#x2d9;" horiz-adv-x="313" 
d="M157 674c11.333 0 20.833 -4 28.5 -12s11.5 -17.333 11.5 -28s-3.83301 -20 -11.5 -28s-17.167 -12 -28.5 -12s-20.833 4 -28.5 12s-11.5 17.333 -11.5 28s3.83301 20 11.5 28s17.167 12 28.5 12z" />
    <glyph glyph-name="ring" unicode="&#x2da;" horiz-adv-x="324" 
d="M162 714c24 0 44.5 -8.5 61.5 -25.5s25.5 -37.5 25.5 -61.5s-8.5 -44.5 -25.5 -61.5s-37.5 -25.5 -61.5 -25.5s-44.5 8.5 -61.5 25.5s-25.5 37.5 -25.5 61.5s8.5 44.5 25.5 61.5s37.5 25.5 61.5 25.5zM162 674c-13.333 0 -24.5 -4.66699 -33.5 -14
s-13.5 -20.333 -13.5 -33s4.5 -23.667 13.5 -33s20.167 -14 33.5 -14s24.5 4.66699 33.5 14s13.5 20.333 13.5 33s-4.5 23.667 -13.5 33s-20.167 14 -33.5 14z" />
    <glyph glyph-name="ogonek" unicode="&#x2db;" horiz-adv-x="321" 
d="M153 2l43.002 -0.000976562v-2c-51.333 -37.333 -77 -72.333 -77 -105c0 -19.333 6.5 -34 19.5 -44s29.167 -15 48.5 -15c13.333 0 32.666 4 57.999 12l-10 -44c-20.667 -6 -38 -9 -52 -9c-28.667 0 -53.834 8.83301 -75.501 26.5s-32.5 40.834 -32.5 69.501
c0 41.333 26 78.333 78 111z" />
    <glyph glyph-name="tilde" unicode="&#x2dc;" horiz-adv-x="439" 
d="M105 586l-29.999 22c7.33301 18 17.833 33.167 31.5 45.5s29.167 18.5 46.5 18.5c16 0 39.333 -6.33301 70 -19c34 -13.333 55 -20 63 -20c22.667 0 38.667 13.667 48 41l29 -22c-4.66699 -18 -14.667 -33.333 -30 -46s-32.333 -19 -51 -19c-11.333 0 -33 6.66699 -65 20
c-30.667 13.333 -53.334 20 -68.001 20c-20 0 -34.667 -13.667 -44 -41z" />
    <glyph glyph-name="hungarumlaut" unicode="&#x2dd;" horiz-adv-x="446" 
d="M177 714l61 -19l-124 -145l-38 17zM310 714l61 -19l-124 -145l-38 17z" />
    <glyph glyph-name="mu" unicode="&#x3bc;" horiz-adv-x="472" 
d="M115 -270l-44.999 0.00195312v732h45v-228c0 -24 1.66699 -46.5 5 -67.5s9 -42.333 17 -64s20.5 -38.834 37.5 -51.501s37.5 -19 61.5 -19c26.667 0 48.5 4.33301 65.5 13s29.333 21.667 37 39s12.667 34.666 15 51.999s3.5 39 3.5 65v261h45v-277
c0 -22 -0.166992 -38.167 -0.5 -48.5s-2.83301 -24 -7.5 -41s-11.334 -31.5 -20.001 -43.5c-31.333 -41.333 -77.333 -62 -138 -62c-22.667 0 -46 7.33301 -70 22s-40.333 34.667 -49 60h-2v-342z" />
    <glyph glyph-name="endash" unicode="&#x2013;" horiz-adv-x="500" 
d="M0 342h500v-45h-500v45z" />
    <glyph glyph-name="emdash" unicode="&#x2014;" horiz-adv-x="1000" 
d="M130 342h740v-45h-740v45z" />
    <glyph glyph-name="quoteleft" unicode="&#x2018;" horiz-adv-x="259" 
d="M118 524l-45 13l83 227l30 -11z" />
    <glyph glyph-name="quoteright" unicode="&#x2019;" horiz-adv-x="259" 
d="M141 764l45 -13l-83 -227l-30 11z" />
    <glyph glyph-name="quotesinglbase" unicode="&#x201a;" horiz-adv-x="259" 
d="M141 74l45 -14l-83 -226l-30 11z" />
    <glyph glyph-name="quotedblleft" unicode="&#x201c;" horiz-adv-x="390" 
d="M249 524l-45 13l83 227l30 -11zM118 524l-45 13l83 227l30 -11z" />
    <glyph glyph-name="quotedblright" unicode="&#x201d;" horiz-adv-x="390" 
d="M141 764l45 -13l-83 -227l-30 11zM272 764l45 -13l-83 -227l-30 11z" />
    <glyph glyph-name="quotedblbase" unicode="&#x201e;" horiz-adv-x="390" 
d="M141 74l45 -14l-83 -226l-30 11zM272 74l45 -14l-83 -226l-30 11z" />
    <glyph glyph-name="dagger" unicode="&#x2020;" 
d="M286 754h48v-199h181v-45h-181v-688h-48v688h-181v45h181v199z" />
    <glyph glyph-name="daggerdbl" unicode="&#x2021;" 
d="M286 754h48v-199h181v-45h-181v-428h181v-45h-181v-215h-48v215h-181v45h181v428h-181v45h181v199z" />
    <glyph glyph-name="bullet" unicode="&#x2022;" 
d="M311 566c53.333 0 98 -18.333 134 -55s54 -81.334 54 -134.001c0 -52 -18 -96.333 -54 -133s-80.667 -55 -134 -55s-98.166 18.333 -134.499 55s-54.5 81 -54.5 133c0 52.667 18.167 97.334 54.5 134.001s81.166 55 134.499 55z" />
    <glyph glyph-name="ellipsis" unicode="&#x2026;" horiz-adv-x="1000" 
d="M167 75c11.333 0 21 -4 29 -12s12 -17.667 12 -29s-4 -21 -12 -29s-17.667 -12 -29 -12s-21 4 -29 12s-12 17.667 -12 29s4 21 12 29s17.667 12 29 12zM500 75c11.333 0 21 -4 29 -12s12 -17.667 12 -29s-4 -21 -12 -29s-17.667 -12 -29 -12s-21 4 -29 12
s-12 17.667 -12 29s4 21 12 29s17.667 12 29 12zM833 75c11.333 0 21 -4 29 -12s12 -17.667 12 -29s-4 -21 -12 -29s-17.667 -12 -29 -12s-21 4 -29 12s-12 17.667 -12 29s4 21 12 29s17.667 12 29 12z" />
    <glyph glyph-name="perthousand" unicode="&#x2030;" horiz-adv-x="1034" 
d="M854 289c42.667 0 78.667 -14 108 -42s44 -63.667 44 -107c0 -42 -14.667 -77 -44 -105s-65.333 -42 -108 -42s-78.667 14 -108 42s-44 63 -44 105c0 43.333 14.667 79 44 107s65.333 42 108 42zM854 247c-30 0 -55.833 -10.333 -77.5 -31s-32.5 -46 -32.5 -76
c0 -28.667 10.833 -53.334 32.5 -74.001s47.5 -31 77.5 -31s55.833 10.333 77.5 31s32.5 45.334 32.5 74.001c0 30 -10.833 55.333 -32.5 76s-47.5 31 -77.5 31zM180 761c42.667 0 78.667 -14 108 -42s44 -63.667 44 -107c0 -42 -14.667 -77 -44 -105s-65.333 -42 -108 -42
s-78.667 14 -108 42s-44 63 -44 105c0 43.333 14.667 79 44 107s65.333 42 108 42zM180 719c-30 0 -55.833 -10.333 -77.5 -31s-32.5 -46 -32.5 -76c0 -28.667 10.833 -53.334 32.5 -74.001s47.5 -31 77.5 -31s55.833 10.333 77.5 31s32.5 45.334 32.5 74.001
c0 30 -10.833 55.333 -32.5 76s-47.5 31 -77.5 31zM538 771l33 -17l-448 -771l-31 18zM484 289c42.667 0 78.667 -14 108 -42s44 -63.667 44 -107c0 -42 -14.667 -77 -44 -105s-65.333 -42 -108 -42s-78.667 14 -108 42s-44 63 -44 105c0 43.333 14.667 79 44 107
s65.333 42 108 42zM484 247c-30 0 -55.833 -10.333 -77.5 -31s-32.5 -46 -32.5 -76c0 -28.667 10.833 -53.334 32.5 -74.001s47.5 -31 77.5 -31s55.833 10.333 77.5 31s32.5 45.334 32.5 74.001c0 30 -10.833 55.333 -32.5 76s-47.5 31 -77.5 31z" />
    <glyph glyph-name="guilsinglleft" unicode="&#x2039;" horiz-adv-x="277" 
d="M89 320l121 -142l-29 -27l-146 169l146 169l29 -27z" />
    <glyph glyph-name="guilsinglright" unicode="&#x203a;" horiz-adv-x="277" 
d="M67 178l121 142l-121 142l29 27l146 -169l-146 -169z" />
    <glyph glyph-name="fraction" unicode="&#x2044;" horiz-adv-x="129" 
d="M272 772l32 -18l-447 -771l-32 18z" />
    <glyph glyph-name="Euro" unicode="&#x20ac;" 
d="M611 685c-54.667 52.667 -123.666 79.001 -206.999 79.001c-87.333 0 -159.666 -31.667 -216.999 -95c-52.667 -58.667 -84.334 -134.334 -95.001 -227.001h-70l-14 -45h80v-21c0 -12 0.666992 -30 2 -54h-68l-14 -45h88c14.667 -84.667 48 -153 100 -205
c54.667 -54.667 124.667 -82 210 -82c45.333 0 81 3.66699 107 11c26 8.66699 53.667 24 83 46v58c-27.333 -25.333 -51.666 -42.333 -72.999 -51c-29.333 -12.667 -69 -19 -119 -19c-70 0 -128.333 23.333 -175 70c-42 43.333 -70 100.666 -84 171.999h343l14 45h-364
c-1.33301 22.667 -2 39.334 -2 50.001v25h389l14 45h-399c10 89.333 39 158.333 87 207c46 46.667 103.333 70 172 70c45.333 0 82.666 -6.5 111.999 -19.5s57.666 -35.167 84.999 -66.5z" />
    <glyph glyph-name="trademark" unicode="&#x2122;" horiz-adv-x="940" 
d="M378 754v-42h-139v-379h-42v379h-139v42h320zM461 754h72l137 -327h2l139 327h72v-421h-42v379h-4l-165 -379h-2l-163 379h-4v-379h-42v421z" />
    <glyph glyph-name="minus" unicode="&#x2212;" 
d="M54 232v48h512v-48h-512z" />
    <glyph glyph-name="fi" unicode="&#xfb01;" horiz-adv-x="475" 
d="M380 462v-462h-45v462h45zM358 657c11.333 0 21 -4 29 -12s12 -17.667 12 -29s-4 -21 -12 -29s-17.667 -12 -29 -12s-21 4 -29 12s-12 17.667 -12 29s4 21 12 29s17.667 12 29 12zM122 420l0.000976562 -419.999h-45v420h-51v42h51v207c0 54 6 91.667 18 113
c21.333 37.333 55.666 56 102.999 56c14.667 0 28 -2.33301 40 -7v-41c-24 4 -36.333 6 -37 6c-18.667 0 -33.667 -4 -45 -12s-19.333 -19.833 -24 -35.5s-7.5 -29.334 -8.5 -41.001s-1.5 -27.5 -1.5 -47.5v-198h116v-42h-116z" />
    <glyph glyph-name="fl" unicode="&#xfb02;" horiz-adv-x="439" 
d="M122 420l0.000976562 -419.999h-45v420h-51v42h51v207c0 54 6 91.667 18 113c21.333 37.333 55.666 56 102.999 56c14.667 0 28 -2.33301 40 -7v-41c-24 4 -36.333 6 -37 6c-18.667 0 -33.667 -4 -45 -12s-19.333 -19.833 -24 -35.5s-7.5 -29.334 -8.5 -41.001
s-1.5 -27.5 -1.5 -47.5v-198h116v-42h-116zM362.001 825.001v-825h-45v825h45z" />
    <glyph glyph-name=".null" horiz-adv-x="0" 
 />
    <glyph glyph-name="nonmarkingreturn" horiz-adv-x="333" 
 />
    <glyph glyph-name="hyphen" horiz-adv-x="190" 
d="M0 342h190v-45h-190v45z" />
    <glyph glyph-name="oldcurrency" 
d="M68 498l36 36l42 -42c53.333 38.667 108 58 164 58s110.667 -19.333 164 -58l42 42l36 -36l-40 -40c35.333 -54.667 53 -107.334 53 -158.001s-17.667 -103.334 -53 -158.001l40 -40l-36 -36l-42 42c-53.333 -38.667 -108 -58 -164 -58s-110.667 19.333 -164 58l-42 -42
l-36 36l40 40c-35.333 54.667 -53 107.334 -53 158.001s17.667 103.334 53 158.001zM310 502c-58.667 -1.33301 -107.998 -21.166 -147.998 -59.499s-59.667 -85.833 -59 -142.5c1.33301 -54.667 22.166 -102 62.499 -142s88.5 -60 144.5 -60s104.167 20 144.5 60
s61.166 87.333 62.499 142c0.666992 56.667 -19 104.167 -59 142.5s-89.333 58.166 -148 59.499z" />
    </font>
</defs>
</svg>
